<?xml version="1.0" encoding="utf-8"?>
<!-- Generator: Adobe Illustrator 16.0.2, SVG Export Plug-In . SVG Version: 6.00 Build 0)  -->
<!DOCTYPE svg PUBLIC "-//W3C//DTD SVG 1.1//EN" "http://www.w3.org/Graphics/SVG/1.1/DTD/svg11.dtd">
<svg version="1.1" id="Layer_1" xmlns="http://www.w3.org/2000/svg" xmlns:xlink="http://www.w3.org/1999/xlink" x="0px" y="0px"
	 width="154.507px" height="114.863px" viewBox="0 0 154.507 114.863" enable-background="new 0 0 154.507 114.863"
	 xml:space="preserve">
<path fill="#263169" d="M0,62.28c0,0,17.644-21.211,22.637-32.842c0,0,4.339-6.262,6.48-5.479c2.143,0.782,5.35,3.261,6.097,6.335
	s3.75,12.765,9.433,12.035C50.329,41.6,60.586,0.694,71.487,0c0,0,17.497-0.341,19.237,14.865l9.398,38.09
	c0,0,3.024,7.732,8.094,7.153s7.757-5.607,7.757-5.607s2.917-6.752,7.986-7.33c5.068-0.579,7.372,3.552,10.1,6.731
	c2.723,3.18,15.229,14.47,20.447,14.504c0,0-30.543,0.251-29.515,7.166c0,0-14.717,19.849-19.408,32.709
	c0,0-2.182,4.437-6.336,6.096c0,0-2.777,1.977-7.66-2.048c0,0-11.39-17.421-15.063-19.134c0,0-4.415-4.789-7.19-2.814
	c0,0-4.456,0.432-7.551,3.787c-3.09,3.355-6.183,6.709-12.944,8.352c0,0-4.287-1.566-6.713-6.186c0,0-8.364-21.047-9.783-21.535
	C32.343,74.799,30.044,68.01,0,62.28z"/>
</svg>
