<?xml version="1.0" encoding="utf-8"?>
<!-- Generator: Adobe Illustrator 16.0.2, SVG Export Plug-In . SVG Version: 6.00 Build 0)  -->
<!DOCTYPE svg PUBLIC "-//W3C//DTD SVG 1.1//EN" "http://www.w3.org/Graphics/SVG/1.1/DTD/svg11.dtd">
<svg version="1.1" id="Layer_1" xmlns="http://www.w3.org/2000/svg" xmlns:xlink="http://www.w3.org/1999/xlink" x="0px" y="0px"
	 width="644.673px" height="735.93px" viewBox="0 0 644.673 735.93" enable-background="new 0 0 644.673 735.93"
	 xml:space="preserve">
<linearGradient id="SVGID_1_" gradientUnits="userSpaceOnUse" x1="322.3364" y1="0" x2="322.3364" y2="735.9307">
	<stop  offset="0" style="stop-color:#282F6B"/>
	<stop  offset="1" style="stop-color:#01A9D4"/>
</linearGradient>
<path fill-rule="evenodd" clip-rule="evenodd" fill="#FFFFFF" stroke="url(#SVGID_1_)" stroke-width="12" stroke-miterlimit="10" d="
	M573.022,423.194c39.309-21.756,65.65-61.66,65.65-107.294c0-46.238-27.041-86.601-67.214-108.155
	c9.668-15.635,15.229-33.746,15.229-53.077c0-58.898-51.329-106.645-114.649-106.645c-24.88,0-47.889,7.395-66.678,19.915
	C377.356,30.505,330.771,6,278.026,6c-82.719,0-150.299,60.255-154.795,136.151c-48.096,7.173-84.851,45.938-84.851,92.701
	c0,30.451,15.598,57.504,39.751,74.661C35.264,330.338,6,372.075,6,420.172c0,49.502,30.991,92.27,75.911,112.436
	c-8.066,14.59-12.656,31.118-12.656,48.655c0,58.898,51.336,106.645,114.654,106.645c24.878,0,47.886-7.394,66.675-19.915
	c28.009,37.433,74.591,61.938,127.337,61.938c82.718,0,150.297-60.255,154.793-136.15c48.096-7.174,84.852-45.938,84.852-92.7
	C617.565,468.653,599.896,440.067,573.022,423.194z"/>
</svg>
