<?xml version="1.0" encoding="utf-8"?>
<!-- Generator: Adobe Illustrator 16.0.2, SVG Export Plug-In . SVG Version: 6.00 Build 0)  -->
<!DOCTYPE svg PUBLIC "-//W3C//DTD SVG 1.1//EN" "http://www.w3.org/Graphics/SVG/1.1/DTD/svg11.dtd">
<svg version="1.1" id="Layer_1" xmlns="http://www.w3.org/2000/svg" xmlns:xlink="http://www.w3.org/1999/xlink" x="0px" y="0px"
	 width="610.2px" height="138.082px" viewBox="0 0 610.2 138.082" enable-background="new 0 0 610.2 138.082" xml:space="preserve">
<g>
	<path fill-rule="evenodd" clip-rule="evenodd" fill="#A6A6A6" d="M281.981,9.493c0.912,0,1.458-0.547,1.458-1.46
		c0-4.929,0-4.929,0-4.929c0-1.643-1.458-3.104-3.1-3.104c-45.764,0-45.764,0-45.764,0c-1.641,0-3.1,1.46-3.1,3.104
		c0,9.858,0,9.858,0,9.858c-4.193,0-4.193,0-4.193,0c0-1.46,0-1.46,0-1.46c0-1.826-1.458-3.286-3.282-3.286
		c-14.404,0-14.404,0-14.404,0c-6.382,0-10.757,10.223-10.757,19.716c0,15.882,0,15.882,0,15.882c0,0.365,0.182,0.73,0.364,1.095
		c0.365,0.183,0.729,0.365,1.094,0.365c5.834,0,5.834,0,5.834,0c0.729,3.468,3.829,6.207,7.476,6.207
		c3.646,0,6.746-2.738,7.475-6.207c4.741,0,4.741,0,4.741,0c0.729,0,1.276-0.548,1.458-1.278c29.719,0,29.719,0,29.719,0
		c0,4.016,3.464,7.484,7.476,7.484c4.193,0,7.658-3.468,7.658-7.484c8.205,0,8.205,0,8.205,0c1.641,0,3.1-1.46,3.1-3.286
		c0-26.835,0-26.835,0-26.835c0-0.913-0.547-1.46-1.458-1.46c-0.729,0-1.458,0.548-1.458,1.46c0,16.795,0,16.795,0,16.795
		c-46.129,0-46.129,0-46.129,0c0-27.565,0-27.565,0-27.565s0-0.183,0.182-0.183c45.764,0,45.764,0,45.764,0
		c0.183,0,0.183,0.183,0.183,0.183c0,4.929,0,4.929,0,4.929C280.523,8.945,281.252,9.493,281.981,9.493L281.981,9.493z
		 M203.763,17.343h0.182c10.575,0,10.575,0,10.575,0c0,9.127,0,9.127,0,9.127c-12.763,0-12.763,0-12.763,0
		C201.939,23.185,202.669,19.898,203.763,17.343L203.763,17.343z M213.609,48.559c-2.553,0-4.741-2.19-4.741-4.746
		s2.188-4.747,4.741-4.747c2.552,0,4.74,2.191,4.74,4.747S216.161,48.559,213.609,48.559L213.609,48.559z M224.366,42.353
		c-3.282,0-3.282,0-3.282,0c-0.729-3.469-3.829-6.207-7.475-6.207c-3.647,0-6.747,2.738-7.476,6.207c-4.376,0-4.376,0-4.376,0
		c0-12.961,0-12.961,0-12.961c14.222,0,14.222,0,14.222,0c0.912,0,1.458-0.73,1.458-1.46c0-12.048,0-12.048,0-12.048
		c0-0.73-0.547-1.46-1.458-1.46c-10.757,0-10.757,0-10.757,0c1.276-2.008,2.735-3.286,4.376-3.286c14.404,0,14.404,0,14.404,0
		c0.182,0,0.365,0.183,0.365,0.365V42.353L224.366,42.353L224.366,42.353z M231.477,41.075c-4.193,0-4.193,0-4.193,0
		c0-25.192,0-25.192,0-25.192c4.193,0,4.193,0,4.193,0V41.075L231.477,41.075L231.477,41.075z M264.478,48.559
		c-2.553,0-4.558-2.19-4.558-4.746s2.005-4.747,4.558-4.747c2.735,0,4.741,2.191,4.741,4.747S267.213,48.559,264.478,48.559
		L264.478,48.559z M280.523,33.59c0,7.12,0,7.12,0,7.12c0,0.183,0,0.365-0.183,0.365c-8.751,0-8.751,0-8.751,0
		c-1.094-2.921-3.829-4.929-7.111-4.929c-3.1,0-6.017,2.008-7.111,4.929c-22.973,0-22.973,0-22.973,0c0-7.485,0-7.485,0-7.485
		H280.523L280.523,33.59L280.523,33.59z"/>
	<path fill-rule="evenodd" clip-rule="evenodd" fill="#A6A6A6" d="M344.298,73.071c-0.911,0-1.458-0.546-1.458-1.457
		c0-4.917,0-4.917,0-4.917c0-1.639,1.458-3.096,3.1-3.096c45.764,0,45.764,0,45.764,0c1.642,0,3.1,1.457,3.1,3.096
		c0,9.835,0,9.835,0,9.835c4.193,0,4.193,0,4.193,0c0-1.457,0-1.457,0-1.457c0-1.821,1.459-3.278,3.282-3.278
		c14.404,0,14.404,0,14.404,0c6.381,0,10.757,10.199,10.757,19.669c0,15.846,0,15.846,0,15.846c0,0.364-0.183,0.729-0.364,1.093
		c-0.365,0.182-0.729,0.364-1.094,0.364c-5.835,0-5.835,0-5.835,0c-0.729,3.46-3.829,6.192-7.476,6.192s-6.746-2.732-7.476-6.192
		c-4.74,0-4.74,0-4.74,0c-0.729,0-1.276-0.547-1.459-1.275c-29.719,0-29.719,0-29.719,0c0,4.007-3.465,7.468-7.476,7.468
		c-4.193,0-7.658-3.461-7.658-7.468c-8.204,0-8.204,0-8.204,0c-1.642,0-3.1-1.457-3.1-3.278c0-26.772,0-26.772,0-26.772
		c0-0.911,0.547-1.457,1.458-1.457c0.729,0,1.459,0.546,1.459,1.457c0,16.756,0,16.756,0,16.756c46.129,0,46.129,0,46.129,0
		c0-27.501,0-27.501,0-27.501s0-0.182-0.183-0.182c-45.764,0-45.764,0-45.764,0c-0.183,0-0.183,0.182-0.183,0.182
		c0,4.917,0,4.917,0,4.917C345.757,72.524,345.028,73.071,344.298,73.071L344.298,73.071z M422.517,80.902h-0.183
		c-10.574,0-10.574,0-10.574,0c0,9.106,0,9.106,0,9.106c12.763,0,12.763,0,12.763,0C424.34,86.73,423.611,83.452,422.517,80.902
		L422.517,80.902z M412.671,112.046c2.553,0,4.741-2.186,4.741-4.735s-2.188-4.735-4.741-4.735s-4.74,2.186-4.74,4.735
		S410.119,112.046,412.671,112.046L412.671,112.046z M401.915,105.854c3.281,0,3.281,0,3.281,0c0.729-3.461,3.829-6.192,7.476-6.192
		s6.746,2.731,7.476,6.192c4.376,0,4.376,0,4.376,0c0-12.932,0-12.932,0-12.932c-14.222,0-14.222,0-14.222,0
		c-0.911,0-1.459-0.729-1.459-1.457c0-12.02,0-12.02,0-12.02c0-0.729,0.548-1.457,1.459-1.457c10.758,0,10.758,0,10.758,0
		c-1.276-2.003-2.735-3.278-4.376-3.278c-14.404,0-14.404,0-14.404,0c-0.183,0-0.364,0.182-0.364,0.364V105.854L401.915,105.854
		L401.915,105.854z M394.803,104.579c4.193,0,4.193,0,4.193,0c0-25.133,0-25.133,0-25.133c-4.193,0-4.193,0-4.193,0V104.579
		L394.803,104.579L394.803,104.579z M361.802,112.046c2.553,0,4.559-2.186,4.559-4.735s-2.006-4.735-4.559-4.735
		c-2.735,0-4.74,2.186-4.74,4.735S359.067,112.046,361.802,112.046L361.802,112.046z M345.757,97.112c0,7.103,0,7.103,0,7.103
		c0,0.183,0,0.364,0.183,0.364c8.752,0,8.752,0,8.752,0c1.094-2.914,3.828-4.917,7.11-4.917c3.1,0,6.017,2.003,7.11,4.917
		c22.974,0,22.974,0,22.974,0c0-7.467,0-7.467,0-7.467H345.757L345.757,97.112L345.757,97.112z"/>
	<path fill-rule="evenodd" clip-rule="evenodd" fill="#A6A6A6" d="M607.006,52.581c-36.725-6.38-36.725-6.38-36.725-6.38
		c-35.128,6.38-35.128,6.38-35.128,6.38c-1.996,0.2-3.193,1.994-3.193,3.789c0,4.387,0,4.387,0,4.387c0,1.794,1.396,3.19,3.193,3.19
		c3.193,0,3.193,0,3.193,0c0,45.063,0,45.063,0,45.063c0,1.795,1.397,3.19,3.193,3.19c59.278,0,59.278,0,59.278,0
		c1.797,0,3.194-1.396,3.194-3.19c0-34.096,0-34.096,0-34.096c0-0.797-0.799-1.595-1.597-1.595c-0.998,0-1.598,0.798-1.598,1.595
		c0,34.096,0,34.096,0,34.096c-59.278,0-59.278,0-59.278,0c0-45.063,0-45.063,0-45.063c59.278,0,59.278,0,59.278,0
		c0,4.786,0,4.786,0,4.786c0,0.797,0.6,1.595,1.598,1.595c0.798,0,1.597-0.798,1.597-1.595c0-4.786,0-4.786,0-4.786
		c3.193,0,3.193,0,3.193,0c1.597,0,2.993-1.396,2.993-3.19c0-4.387,0-4.387,0-4.387C610.2,54.774,609.202,52.979,607.006,52.581
		L607.006,52.581z M607.006,60.756c-5.588,0-5.588,0-5.588,0c-0.2,0-0.399,0-0.6,0c-59.278,0-59.278,0-59.278,0
		c-0.199,0-0.599,0-0.799,0c-5.588,0-5.588,0-5.588,0c0-4.387,0-4.387,0-4.387s0-0.598,0.599-0.598
		c34.529-6.181,34.529-6.181,34.529-6.181c36.126,6.181,36.126,6.181,36.126,6.181c0.599,0,0.599,0.399,0.599,0.598V60.756
		L607.006,60.756L607.006,60.756z M594.233,70.327c-46.306,0-46.306,0-46.306,0c-0.798,0-1.597,0.797-1.597,1.595
		c0,0.997,0.799,1.595,1.597,1.595c46.306,0,46.306,0,46.306,0c0.998,0,1.597-0.598,1.597-1.595
		C595.83,71.125,595.231,70.327,594.233,70.327L594.233,70.327z M594.233,77.705c-46.306,0-46.306,0-46.306,0
		c-0.798,0-1.597,0.598-1.597,1.595c0,0.797,0.799,1.595,1.597,1.595c46.306,0,46.306,0,46.306,0c0.998,0,1.597-0.798,1.597-1.595
		C595.83,78.303,595.231,77.705,594.233,77.705L594.233,77.705z M594.233,84.883c-46.306,0-46.306,0-46.306,0
		c-0.798,0-1.597,0.797-1.597,1.595c0,0.997,0.799,1.595,1.597,1.595c46.306,0,46.306,0,46.306,0c0.998,0,1.597-0.598,1.597-1.595
		C595.83,85.68,595.231,84.883,594.233,84.883L594.233,84.883z M594.233,92.26c-46.306,0-46.306,0-46.306,0
		c-0.798,0-1.597,0.599-1.597,1.596c0,0.797,0.799,1.595,1.597,1.595c46.306,0,46.306,0,46.306,0c0.998,0,1.597-0.798,1.597-1.595
		C595.83,92.859,595.231,92.26,594.233,92.26L594.233,92.26z M594.233,99.439c-46.306,0-46.306,0-46.306,0
		c-0.798,0-1.597,0.797-1.597,1.595c0,0.997,0.799,1.596,1.597,1.596c46.306,0,46.306,0,46.306,0c0.998,0,1.597-0.599,1.597-1.596
		C595.83,100.236,595.231,99.439,594.233,99.439L594.233,99.439z"/>
	<path fill-rule="evenodd" clip-rule="evenodd" fill="#A6A6A6" d="M164.021,119.52c-0.591,0-1.181-0.57-1.181-1.14l0,0
		c0-0.57,0.59-1.141,1.181-1.141l0,0c295.597,0,295.597,0,295.597,0c0.591,0,1.182,0.57,1.182,1.141l0,0
		c0,0.569-0.591,1.14-1.182,1.14l0,0C164.021,119.52,164.021,119.52,164.021,119.52L164.021,119.52z"/>
	<path fill-rule="evenodd" clip-rule="evenodd" fill="#A6A6A6" d="M164.021,55.68c-0.591,0-1.181-0.54-1.181-1.08l0,0
		c0-0.54,0.59-1.08,1.181-1.08l0,0c295.597,0,295.597,0,295.597,0c0.591,0,1.182,0.54,1.182,1.08l0,0c0,0.54-0.591,1.08-1.182,1.08
		l0,0C164.021,55.68,164.021,55.68,164.021,55.68L164.021,55.68z"/>
	<text transform="matrix(1 0 0 1 16.8149 132.4048)"><tspan x="0" y="0" fill="#A6A6A6" font-family="'Calibri'" font-size="18">F</tspan><tspan x="7.334" y="0" fill="#A6A6A6" font-family="'Calibri'" font-size="18">A</tspan><tspan x="17.66" y="0" fill="#A6A6A6" font-family="'Calibri'" font-size="18">C</tspan><tspan x="27.365" y="0" fill="#A6A6A6" font-family="'Calibri'" font-size="18">T</tspan><tspan x="35.651" y="0" fill="#A6A6A6" font-family="'Calibri'" font-size="18">O</tspan><tspan x="47.533" y="0" fill="#A6A6A6" font-family="'Calibri'" font-size="18">R</tspan><tspan x="57.018" y="0" fill="#A6A6A6" font-family="'Calibri'" font-size="18">Y</tspan></text>
	<text transform="matrix(1 0 0 1 536.4634 132.5532)"><tspan x="0" y="0" fill="#A6A6A6" font-family="'Calibri'" font-size="18">S</tspan><tspan x="8.162" y="0" fill="#A6A6A6" font-family="'Calibri'" font-size="18">T</tspan><tspan x="16.448" y="0" fill="#A6A6A6" font-family="'Calibri'" font-size="18">OR</tspan><tspan x="38.067" y="0" fill="#A6A6A6" font-family="'Calibri'" font-size="18">A</tspan><tspan x="48.393" y="0" fill="#A6A6A6" font-family="'Calibri'" font-size="18">G</tspan><tspan x="59.784" y="0" fill="#A6A6A6" font-family="'Calibri'" font-size="18">E</tspan></text>
	<path fill-rule="evenodd" clip-rule="evenodd" fill="#A6A6A6" d="M103.009,89.826c-3.615,0-3.615,0-3.615,0
		c0-4.518,0-4.518,0-4.518c0-1.807-1.355-3.162-3.162-3.162c-4.292,0-4.292,0-4.292,0c-1.807,0-3.388,1.355-3.388,3.162
		c0,4.518,0,4.518,0,4.518c-2.485,0-2.485,0-2.485,0c0-6.776,0-6.776,0-6.776c0-2.033-1.582-3.614-3.614-3.614
		c-5.422,0-5.422,0-5.422,0c-2.033,0-3.614,1.581-3.614,3.614c0,6.776,0,6.776,0,6.776c-2.485,0-2.485,0-2.485,0
		c0-7.68,0-7.68,0-7.68c0-2.484-2.033-4.518-4.744-4.518c-8.358,0-8.358,0-8.358,0c-2.485,0-4.518,2.033-4.518,4.518
		c0,7.68,0,7.68,0,7.68c-3.615,0-3.615,0-3.615,0c-3.614,0-6.551,2.936-6.551,6.55c0,0.226,0,0.226,0,0.226
		c-5.421-11.067-7.003-21.457-7.003-29.136c0-7.68,1.355-12.875,1.807-14.004c0-0.678,0.226-1.129,0.226-1.807
		c0-1.355-0.904-2.937-2.033-3.163c-1.129-0.452-2.033-0.452-2.71-0.452c-0.452,0-0.452,0-0.452,0s-0.226,0-0.678,0.226
		c-1.355,0.226-4.292,1.129-7.229,1.129c-2.033,0-4.066-0.452-5.421-0.678c-0.904-0.226-1.355-0.452-1.807-0.452
		c-0.452-0.226-0.678-0.226-0.678-0.226c-0.226,0-0.452,0-0.678,0l0,0c-0.678,0-1.582-0.226-2.485,0.226
		c-1.129,0.452-2.033,1.807-2.033,3.388c0,0.452,0,1.129,0.226,1.807c0.452,1.129,1.355,5.421,1.355,11.745
		c0,9.712-2.259,24.393-12.876,39.752c-0.226,0.226-0.226,0.226-0.226,0.226c0,0.226-0.452,1.13-0.452,2.484
		c0,0.903,0.226,2.259,1.355,3.162c0.904,0.678,2.259,1.13,4.066,1.13c86.744,0,86.744,0,86.744,0c0.904,0,1.807-0.903,1.807-1.808
		c0-1.129-0.903-1.807-1.807-1.807c-86.744,0-86.744,0-86.744,0c-1.355,0-1.808-0.226-1.808-0.451c0,0,0,0,0-0.227
		c0,0,0-0.226,0-0.451c0-0.227,0-0.227,0-0.227c11.069-16.036,13.554-31.395,13.554-41.785c0-6.776-1.13-11.293-1.355-12.648
		c-0.226-0.452-0.226-0.678-0.226-0.903c0.226,0,0.452,0,0.678,0c1.129,0.226,4.744,1.355,8.81,1.355c3.84,0,7.681-1.129,8.81-1.355
		c0.226,0,0.452,0,0.678,0l0,0c0,0.226,0,0.452-0.226,0.903c-0.226,1.355-1.807,6.776-1.807,14.907
		c0,8.809,1.807,20.78,9.036,33.654c0.226,0.452,0.904,0.903,1.582,0.903c1.807,0,1.807,0,1.807,0c0.452,0,0.904-0.226,1.355-0.451
		c0.226-0.452,0.452-0.904,0.452-1.355c0-3.84,0-3.84,0-3.84c0-1.807,1.355-2.937,2.937-2.937c5.422,0,5.422,0,5.422,0
		c0.452,0,0.903-0.226,1.355-0.678c0.226-0.226,0.452-0.678,0.452-1.129c0-9.486,0-9.486,0-9.486c0-0.452,0.452-0.903,0.903-0.903
		c8.358,0,8.358,0,8.358,0c0.678,0,1.129,0.452,1.129,0.903c0,9.486,0,9.486,0,9.486c0,0.451,0.226,0.903,0.452,1.129
		c0.452,0.452,0.904,0.678,1.355,0.678c6.099,0,6.099,0,6.099,0c0.452,0,0.904-0.226,1.129-0.678
		c0.452-0.226,0.678-0.678,0.678-1.129c0-8.583,0-8.583,0-8.583l0,0c5.422,0,5.422,0,5.422,0l0,0c0,8.583,0,8.583,0,8.583
		c0,0.451,0.226,0.903,0.678,1.129c0.226,0.452,0.678,0.678,1.129,0.678c6.099,0,6.099,0,6.099,0c0.678,0,1.129-0.226,1.355-0.678
		c0.452-0.226,0.452-0.678,0.452-1.129c0-5.873,0-5.873,0-5.873c3.614,0,3.614,0,3.614,0c0,5.873,0,5.873,0,5.873
		c0,0.451,0.226,0.903,0.678,1.129c0.226,0.452,0.678,0.678,1.129,0.678c5.422,0,5.422,0,5.422,0c1.581,0,2.937,1.13,2.937,2.937
		c0,9.034,0,9.034,0,9.034c0,1.581-1.355,2.937-2.937,2.937c-3.389,0-3.389,0-3.389,0c-1.129,0-1.807,0.678-1.807,1.807
		c0,0.904,0.678,1.808,1.807,1.808c3.389,0,3.389,0,3.389,0c3.614,0,6.551-2.937,6.551-6.551c0-9.034,0-9.034,0-9.034
		C109.56,92.761,106.624,89.826,103.009,89.826L103.009,89.826z M26.656,46.233c1.807,0,3.389-0.904,4.518-2.259l0,0
		c2.259,0,4.292-0.903,5.874-2.484c1.807,1.807,4.518,2.936,7.229,2.936c1.582,0,2.937-0.226,4.066-0.678
		c1.807,3.614,5.421,6.325,9.939,6.325c3.84,0,7.229-2.033,9.262-5.421c0,0,0.226,0,0.452,0c5.874,0,10.617-4.743,10.617-10.616
		s-4.744-10.616-10.617-10.616c0,0-0.226,0-0.452,0C65.736,20.259,62.122,18,58.282,18c-4.292,0-8.132,2.485-9.714,6.099
		c-1.355-0.452-2.71-0.904-4.292-0.904c-4.066,0-7.455,2.259-9.262,5.647c-1.129-0.678-2.485-0.904-3.84-0.904
		c-4.292,0-7.906,3.614-7.906,7.905c0,0.226,0,0.226,0,0.226c-1.355,1.129-2.259,2.71-2.259,4.517
		C21.008,43.749,23.493,46.233,26.656,46.233L26.656,46.233z M25.978,38.78c0.678-0.452,1.13-1.129,0.904-2.033
		c0-0.226,0-0.452,0-0.904c0-2.258,2.033-4.291,4.292-4.291c1.355,0,2.485,0.452,3.389,1.355c0.452,0.452,1.129,0.678,1.581,0.452
		c0.678,0,1.129-0.678,1.355-1.129c0.904-3.162,3.614-5.42,6.777-5.42c1.582,0,2.937,0.452,4.292,1.355
		c0.452,0.452,1.129,0.452,1.582,0.226c0.678-0.226,1.129-0.678,1.129-1.355c0.678-3.162,3.614-5.421,7.003-5.421
		c2.937,0,5.421,1.807,6.551,4.518c0.226,0.903,1.129,1.355,2.033,1.129c0.452,0,0.678-0.226,1.129-0.226
		c4.066,0,7.003,3.162,7.003,7.002c0,4.065-2.937,7.002-7.003,7.002c-0.452,0-0.904,0-1.355,0c-0.678-0.226-1.581,0.226-2.033,1.129
		c-0.903,2.485-3.388,4.292-6.325,4.292c-3.615,0-6.325-2.484-7.003-5.873c0-0.452-0.452-1.129-1.129-1.355
		c-0.226,0-0.452,0-0.678,0c-0.452,0-0.678,0-1.129,0.226c-1.13,0.903-2.485,1.355-4.066,1.355c-2.485,0-4.518-1.355-5.873-3.162
		c-0.452-0.678-0.904-0.903-1.582-0.903s-1.355,0.452-1.581,1.129c-0.678,1.355-2.259,2.484-4.066,2.484c-0.226,0-0.452,0-0.678,0
		c-0.903-0.226-1.581,0.226-2.033,0.903c-0.226,0.903-0.903,1.355-1.807,1.355c-1.129,0-2.033-0.904-2.033-2.033
		C24.623,39.683,25.075,39.005,25.978,38.78L25.978,38.78z"/>
</g>
</svg>
