<?xml version="1.0" encoding="utf-8"?>
<!-- Generator: Adobe Illustrator 16.0.2, SVG Export Plug-In . SVG Version: 6.00 Build 0)  -->
<!DOCTYPE svg PUBLIC "-//W3C//DTD SVG 1.1//EN" "http://www.w3.org/Graphics/SVG/1.1/DTD/svg11.dtd">
<svg version="1.1" id="Layer_1" xmlns="http://www.w3.org/2000/svg" xmlns:xlink="http://www.w3.org/1999/xlink" x="0px" y="0px"
	 width="92.151px" height="68.625px" viewBox="0 0 92.151 68.625" enable-background="new 0 0 92.151 68.625" xml:space="preserve">
<rect x="4.029" y="4.022" fill-rule="evenodd" clip-rule="evenodd" fill="#FFFFFF" width="84.092" height="60.582"/>
<g>
	<path fill-rule="evenodd" clip-rule="evenodd" fill="#01A9D4" d="M90.137,14.329c1.006,0,2.014-1.006,2.014-2.012
		c0-5.781,0-5.781,0-5.781C92.151,3.771,90.387,0,85.604,0C6.547,0,6.547,0,6.547,0C4.029,0,0,1.759,0,6.536
		C0,62.09,0,62.09,0,62.09c0,2.766,1.764,6.535,6.547,6.535c79.057,0,79.057,0,79.057,0c2.518,0,6.547-1.76,6.547-6.535
		c0-41.729,0-41.729,0-41.729c0-1.257-1.008-2.011-2.014-2.011c-1.008,0-2.016,0.754-2.016,2.011c0,41.729,0,41.729,0,41.729
		C55.643,34.438,55.643,34.438,55.643,34.438c32.479-27.4,32.479-27.4,32.479-27.4c0,5.279,0,5.279,0,5.279
		C88.122,13.323,89.129,14.329,90.137,14.329L90.137,14.329z M4.029,61.838c0-54.8,0-54.8,0-54.8c32.73,27.4,32.73,27.4,32.73,27.4
		L4.029,61.838L4.029,61.838L4.029,61.838z M85.1,64.604c-78.049,0-78.049,0-78.049,0c32.729-27.4,32.729-27.4,32.729-27.4
		c5.036,4.273,5.036,4.273,5.036,4.273c0.252,0.251,0.755,0.251,1.258,0.251c0.504,0,1.008,0,1.26-0.251
		c5.035-4.273,5.035-4.273,5.035-4.273L85.1,64.604L85.1,64.604L85.1,64.604z M46.074,37.204C6.547,4.022,6.547,4.022,6.547,4.022
		c79.057,0,79.057,0,79.057,0L46.074,37.204L46.074,37.204L46.074,37.204z"/>
</g>
</svg>
