<?xml version="1.0" encoding="utf-8"?>
<!-- Generator: Adobe Illustrator 16.0.2, SVG Export Plug-In . SVG Version: 6.00 Build 0)  -->
<!DOCTYPE svg PUBLIC "-//W3C//DTD SVG 1.1//EN" "http://www.w3.org/Graphics/SVG/1.1/DTD/svg11.dtd">
<svg version="1.1" id="Layer_1" xmlns="http://www.w3.org/2000/svg" xmlns:xlink="http://www.w3.org/1999/xlink" x="0px" y="0px"
	 width="103.584px" height="77.218px" viewBox="0 0 103.584 77.218" enable-background="new 0 0 103.584 77.218"
	 xml:space="preserve">
<g>
	<path fill-rule="evenodd" clip-rule="evenodd" fill="#FFFFFF" d="M0.268,12.871C0.268,5.764,6.03,0,13.137,0h77.58
		c7.107,0,12.867,5.764,12.867,12.871v51.477c0,7.108-5.76,12.87-12.867,12.87h-77.58c-7.106,0-12.869-5.762-12.869-12.87V12.871z"
		/>
	<path fill-rule="evenodd" clip-rule="evenodd" fill="#A6A6A6" d="M101.32,16.125c1.133,0,2.264-1.135,2.264-2.265
		c0-6.507,0-6.507,0-6.507c0-3.108-1.979-7.353-7.356-7.353C7.356,0,7.356,0,7.356,0C4.528,0,0,1.979,0,7.353
		c0,62.513,0,62.513,0,62.513c0,3.11,1.979,7.352,7.356,7.352c88.871,0,88.871,0,88.871,0c2.829,0,7.356-1.979,7.356-7.352
		c0-46.954,0-46.954,0-46.954c0-1.415-1.131-2.264-2.264-2.264c-1.131,0-2.264,0.849-2.264,2.264c0,46.954,0,46.954,0,46.954
		c-36.51-31.115-36.51-31.115-36.51-31.115C99.057,7.92,99.057,7.92,99.057,7.92c0,5.94,0,5.94,0,5.94
		C99.057,14.99,100.189,16.125,101.32,16.125L101.32,16.125z M4.528,69.581c0-61.661,0-61.661,0-61.661
		c36.794,30.831,36.794,30.831,36.794,30.831L4.528,69.581L4.528,69.581L4.528,69.581z M95.66,72.694c-87.736,0-87.736,0-87.736,0
		C44.716,41.86,44.716,41.86,44.716,41.86c5.661,4.809,5.661,4.809,5.661,4.809c0.284,0.284,0.851,0.284,1.416,0.284
		c0.564,0,1.131,0,1.414-0.284c5.662-4.809,5.662-4.809,5.662-4.809L95.66,72.694L95.66,72.694L95.66,72.694z M51.793,41.86
		C7.356,4.526,7.356,4.526,7.356,4.526c88.871,0,88.871,0,88.871,0L51.793,41.86L51.793,41.86L51.793,41.86z"/>
</g>
</svg>
