<?xml version="1.0" encoding="utf-8"?>
<!-- Generator: Adobe Illustrator 16.0.2, SVG Export Plug-In . SVG Version: 6.00 Build 0)  -->
<!DOCTYPE svg PUBLIC "-//W3C//DTD SVG 1.1//EN" "http://www.w3.org/Graphics/SVG/1.1/DTD/svg11.dtd">
<svg version="1.1" id="Layer_1" xmlns="http://www.w3.org/2000/svg" xmlns:xlink="http://www.w3.org/1999/xlink" x="0px" y="0px"
	 width="259.516px" height="169.033px" viewBox="0 0 259.516 169.033" enable-background="new 0 0 259.516 169.033"
	 xml:space="preserve">
<g>
	<path fill="none" stroke="#FFFFFF" stroke-width="9" stroke-miterlimit="10" d="M222.818,116.464c11,0,19.995-9,19.989-20
		l-0.033-62.048c-0.006-11-9.011-19.995-20.011-19.989L27.428,14.538c-11,0.006-19.995,9.011-19.989,20.011l0.033,61.915
		c0.006,11,9.011,20,20.011,20H222.818z"/>
</g>
<g>
	<path fill="#FFFFFF" d="M0,20.044c-0.039-11,8.93-20.005,19.93-20.011L82.963,0c11-0.006,27.023,5.617,35.607,12.496l24.275,19.455
		c8.584,6.879,24.607,12.502,35.607,12.496l61.004-0.033c11-0.006,20.005,8.989,20.012,19.989l0.047,84.5
		c0.007,11-8.988,20.005-19.988,20.011l-219.004,0.119c-11,0.006-20.031-8.988-20.07-19.988L0,20.044z"/>
</g>
</svg>
