<?xml version="1.0" encoding="utf-8"?>
<!-- Generator: Adobe Illustrator 16.0.2, SVG Export Plug-In . SVG Version: 6.00 Build 0)  -->
<!DOCTYPE svg PUBLIC "-//W3C//DTD SVG 1.1//EN" "http://www.w3.org/Graphics/SVG/1.1/DTD/svg11.dtd">
<svg version="1.1" id="Layer_1" xmlns="http://www.w3.org/2000/svg" xmlns:xlink="http://www.w3.org/1999/xlink" x="0px" y="0px"
	 width="268.516px" height="178.033px" viewBox="0 0 268.516 178.033" enable-background="new 0 0 268.516 178.033"
	 xml:space="preserve">
<g>
	<path fill="#FFFFFF" d="M4.5,24.544c-0.039-11,8.93-20.005,19.93-20.011L87.463,4.5c11-0.006,27.023,5.617,35.607,12.496
		l24.275,19.455c8.584,6.879,24.607,12.502,35.607,12.496l61.004-0.033c11-0.006,20.005,8.989,20.012,19.989l0.047,84.499
		c0.007,11-8.988,20.006-19.988,20.012l-219.004,0.119c-11,0.006-20.031-8.989-20.07-19.989L4.5,24.544z"/>
	<path fill="none" stroke="#781E65" stroke-width="9" stroke-miterlimit="10" d="M4.5,24.544c-0.039-11,8.93-20.005,19.93-20.011
		L87.463,4.5c11-0.006,27.023,5.617,35.607,12.496l24.275,19.455c8.584,6.879,24.607,12.502,35.607,12.496l61.004-0.033
		c11-0.006,20.005,8.989,20.012,19.989l0.047,84.499c0.007,11-8.988,20.006-19.988,20.012l-219.004,0.119
		c-11,0.006-20.031-8.989-20.07-19.989L4.5,24.544z"/>
</g>
</svg>
