<?xml version="1.0" encoding="utf-8"?>
<!-- Generator: Adobe Illustrator 16.0.2, SVG Export Plug-In . SVG Version: 6.00 Build 0)  -->
<!DOCTYPE svg PUBLIC "-//W3C//DTD SVG 1.1//EN" "http://www.w3.org/Graphics/SVG/1.1/DTD/svg11.dtd">
<svg version="1.1" id="Layer_1" xmlns="http://www.w3.org/2000/svg" xmlns:xlink="http://www.w3.org/1999/xlink" x="0px" y="0px"
	 width="398.73px" height="281.795px" viewBox="0 0 398.73 281.795" enable-background="new 0 0 398.73 281.795"
	 xml:space="preserve">
<path fill-rule="evenodd" clip-rule="evenodd" fill="#FFFFFF" stroke="#01A9D4" stroke-width="12" stroke-miterlimit="10" d="
	M392.73,105.218c0-38.656-31.338-69.992-69.992-69.992c-6.158,0-12.127,0.802-17.816,2.295C285.466,18.047,258.58,6,228.876,6
	c-26.838,0-51.379,9.838-70.214,26.102C149.383,27.559,138.956,25,127.927,25c-18.512,0-35.334,7.2-47.852,18.937
	c-7.174-4-15.434-6.287-24.23-6.287C28.318,37.649,6,59.966,6,87.495c0,15.069,6.697,28.566,17.266,37.706
	c-6.781,11.703-10.684,25.284-10.684,39.784c0,43.9,35.59,79.488,79.49,79.488c17.248,0,33.199-5.512,46.227-14.844
	c19.418,27.9,51.715,46.166,88.283,46.166c57.35,0,104.203-44.912,107.32-101.481C367.248,168.967,392.73,140.073,392.73,105.218z"
	/>
<g>
	<g>
		<path fill="#01A9D4" d="M170.458,172.967v-66.344h8.779v66.344H170.458z"/>
		<path fill="#01A9D4" d="M211.594,172.967v-58.515h-21.858v-7.829h52.587v7.829h-21.949v58.515H211.594z"/>
	</g>
</g>
</svg>
