<?xml version="1.0" encoding="utf-8"?>
<!-- Generator: Adobe Illustrator 16.0.2, SVG Export Plug-In . SVG Version: 6.00 Build 0)  -->
<!DOCTYPE svg PUBLIC "-//W3C//DTD SVG 1.1//EN" "http://www.w3.org/Graphics/SVG/1.1/DTD/svg11.dtd">
<svg version="1.1" id="Layer_1" xmlns="http://www.w3.org/2000/svg" xmlns:xlink="http://www.w3.org/1999/xlink" x="0px" y="0px"
	 width="115px" height="115.426px" viewBox="0 0 115 115.426" enable-background="new 0 0 115 115.426" xml:space="preserve">
<g>
	<path d="M1.167,13.809V4.848h1.187v8.961H1.167z"/>
	<path d="M4.303,13.809V7.316h0.99V8.24c0.478-0.713,1.166-1.07,2.066-1.07c0.392,0,0.752,0.07,1.08,0.211s0.573,0.325,0.736,0.553
		c0.162,0.229,0.277,0.5,0.342,0.814c0.041,0.203,0.062,0.56,0.062,1.069v3.991H8.479V9.859c0-0.447-0.043-0.783-0.129-1.005
		C8.265,8.633,8.113,8.455,7.895,8.322C7.677,8.189,7.421,8.124,7.127,8.124c-0.469,0-0.873,0.148-1.213,0.446
		c-0.34,0.297-0.51,0.861-0.51,1.693v3.545H4.303z"/>
	<path d="M18.98,11.432l1.082,0.141c-0.117,0.745-0.42,1.329-0.907,1.751s-1.085,0.632-1.794,0.632
		c-0.889,0-1.604-0.289-2.143-0.871c-0.541-0.58-0.811-1.412-0.811-2.496c0-0.701,0.116-1.314,0.349-1.84
		c0.232-0.526,0.586-0.921,1.061-1.184c0.476-0.263,0.991-0.395,1.55-0.395c0.705,0,1.281,0.179,1.73,0.535
		c0.447,0.356,0.735,0.863,0.861,1.52L18.89,9.389c-0.103-0.436-0.282-0.764-0.541-0.984c-0.259-0.219-0.571-0.33-0.938-0.33
		c-0.555,0-1.005,0.199-1.352,0.597c-0.346,0.397-0.52,1.026-0.52,1.886c0,0.873,0.168,1.506,0.502,1.901s0.77,0.593,1.309,0.593
		c0.432,0,0.792-0.133,1.082-0.396C18.721,12.389,18.904,11.981,18.98,11.432z"/>
	<path d="M20.595,10.563c0-1.201,0.335-2.092,1.003-2.671c0.559-0.481,1.238-0.722,2.041-0.722c0.893,0,1.623,0.293,2.189,0.877
		c0.566,0.586,0.85,1.394,0.85,2.424c0,0.836-0.125,1.493-0.376,1.973c-0.251,0.479-0.616,0.85-1.095,1.115
		c-0.479,0.265-1.002,0.396-1.568,0.396c-0.908,0-1.643-0.291-2.203-0.873C20.875,12.499,20.595,11.659,20.595,10.563z
		 M21.727,10.563c0,0.832,0.181,1.455,0.543,1.868c0.363,0.413,0.819,0.62,1.369,0.62c0.547,0,1.001-0.207,1.363-0.623
		c0.363-0.416,0.545-1.05,0.545-1.901c0-0.803-0.183-1.411-0.547-1.825c-0.365-0.413-0.818-0.62-1.361-0.62
		c-0.55,0-1.006,0.206-1.369,0.617C21.907,9.11,21.727,9.731,21.727,10.563z"/>
	<path d="M27.943,13.809V4.848h1.1v8.961H27.943z"/>
	<path d="M30.725,13.809V4.848h1.101v8.961H30.725z"/>
	<path d="M37.767,13.008c-0.407,0.347-0.8,0.592-1.177,0.734s-0.781,0.213-1.213,0.213c-0.714,0-1.262-0.174-1.645-0.521
		c-0.383-0.35-0.575-0.794-0.575-1.336c0-0.318,0.073-0.608,0.218-0.871c0.145-0.264,0.334-0.475,0.568-0.633
		c0.234-0.159,0.498-0.279,0.791-0.361c0.217-0.057,0.543-0.111,0.979-0.164c0.889-0.106,1.543-0.232,1.963-0.379
		c0.004-0.151,0.006-0.247,0.006-0.288c0-0.448-0.104-0.765-0.313-0.947c-0.281-0.249-0.699-0.373-1.253-0.373
		c-0.518,0-0.899,0.091-1.146,0.272c-0.247,0.182-0.43,0.502-0.548,0.963l-1.075-0.147c0.098-0.46,0.258-0.832,0.482-1.115
		s0.548-0.501,0.972-0.654s0.915-0.229,1.474-0.229c0.555,0,1.004,0.065,1.351,0.195c0.347,0.131,0.602,0.295,0.765,0.492
		c0.162,0.198,0.277,0.447,0.342,0.75c0.037,0.188,0.055,0.525,0.055,1.014v1.468c0,1.022,0.023,1.67,0.07,1.94
		c0.047,0.271,0.141,0.531,0.279,0.779h-1.15C37.873,13.581,37.799,13.314,37.767,13.008z M37.676,10.551
		c-0.4,0.163-0.999,0.302-1.798,0.416c-0.452,0.064-0.772,0.139-0.96,0.22s-0.332,0.2-0.434,0.357s-0.153,0.331-0.153,0.522
		c0,0.294,0.111,0.539,0.333,0.734c0.223,0.195,0.547,0.293,0.976,0.293c0.424,0,0.801-0.093,1.131-0.277
		c0.33-0.186,0.572-0.439,0.728-0.762c0.118-0.248,0.178-0.615,0.178-1.101V10.551z"/>
	<path d="M41.508,13.809h-1.021V4.848h1.101v3.197c0.465-0.584,1.057-0.875,1.779-0.875c0.398,0,0.776,0.08,1.133,0.242
		c0.357,0.16,0.65,0.387,0.881,0.678c0.23,0.292,0.41,0.643,0.541,1.055s0.195,0.852,0.195,1.32c0,1.113-0.275,1.973-0.825,2.58
		s-1.21,0.91-1.98,0.91c-0.767,0-1.368-0.319-1.804-0.959V13.809z M41.496,10.514c0,0.779,0.105,1.342,0.317,1.688
		c0.347,0.566,0.815,0.85,1.406,0.85c0.481,0,0.896-0.209,1.247-0.627c0.351-0.417,0.525-1.039,0.525-1.867
		c0-0.848-0.168-1.473-0.504-1.877c-0.336-0.402-0.742-0.605-1.22-0.605c-0.481,0-0.896,0.209-1.247,0.627
		S41.496,9.724,41.496,10.514z"/>
	<path d="M47.047,10.563c0-1.201,0.334-2.092,1.002-2.671c0.559-0.481,1.239-0.722,2.042-0.722c0.893,0,1.622,0.293,2.188,0.877
		c0.566,0.586,0.85,1.394,0.85,2.424c0,0.836-0.125,1.493-0.375,1.973c-0.252,0.479-0.616,0.85-1.095,1.115
		c-0.479,0.265-1.002,0.396-1.568,0.396c-0.909,0-1.644-0.291-2.204-0.873C47.326,12.499,47.047,11.659,47.047,10.563z
		 M48.178,10.563c0,0.832,0.182,1.455,0.544,1.868s0.819,0.62,1.369,0.62c0.546,0,1.001-0.207,1.363-0.623s0.544-1.05,0.544-1.901
		c0-0.803-0.182-1.411-0.547-1.825c-0.365-0.413-0.818-0.62-1.36-0.62c-0.55,0-1.007,0.206-1.369,0.617
		C48.359,9.11,48.178,9.731,48.178,10.563z"/>
	<path d="M54.407,13.809V7.316h0.99v0.984c0.253-0.46,0.486-0.764,0.7-0.91s0.449-0.221,0.706-0.221c0.37,0,0.747,0.119,1.131,0.355
		l-0.379,1.02c-0.269-0.158-0.538-0.238-0.808-0.238c-0.24,0-0.456,0.072-0.647,0.218c-0.191,0.145-0.328,0.345-0.409,0.603
		c-0.123,0.391-0.184,0.818-0.184,1.283v3.398H54.407z"/>
	<path d="M62.824,13.008c-0.406,0.347-0.799,0.592-1.176,0.734s-0.781,0.213-1.214,0.213c-0.714,0-1.261-0.174-1.645-0.521
		c-0.383-0.35-0.575-0.794-0.575-1.336c0-0.318,0.073-0.608,0.218-0.871c0.145-0.264,0.334-0.475,0.568-0.633
		c0.234-0.159,0.499-0.279,0.792-0.361c0.216-0.057,0.542-0.111,0.979-0.164c0.888-0.106,1.542-0.232,1.962-0.379
		c0.004-0.151,0.006-0.247,0.006-0.288c0-0.448-0.104-0.765-0.312-0.947c-0.281-0.249-0.699-0.373-1.254-0.373
		c-0.518,0-0.898,0.091-1.146,0.272S59.6,8.855,59.48,9.316l-1.075-0.147c0.098-0.46,0.259-0.832,0.483-1.115
		c0.224-0.283,0.547-0.501,0.971-0.654s0.916-0.229,1.475-0.229c0.554,0,1.004,0.065,1.35,0.195
		c0.348,0.131,0.602,0.295,0.765,0.492c0.163,0.198,0.277,0.447,0.343,0.75c0.037,0.188,0.055,0.525,0.055,1.014v1.468
		c0,1.022,0.023,1.67,0.07,1.94c0.047,0.271,0.14,0.531,0.278,0.779h-1.149C62.931,13.581,62.857,13.314,62.824,13.008z
		 M62.733,10.551c-0.399,0.163-0.999,0.302-1.798,0.416c-0.452,0.064-0.771,0.139-0.959,0.22s-0.332,0.2-0.435,0.357
		c-0.102,0.157-0.153,0.331-0.153,0.522c0,0.294,0.111,0.539,0.334,0.734c0.222,0.195,0.547,0.293,0.975,0.293
		c0.424,0,0.801-0.093,1.131-0.277c0.33-0.186,0.572-0.439,0.729-0.762c0.117-0.248,0.177-0.615,0.177-1.101V10.551z"/>
	<path d="M67.953,12.824l0.16,0.973c-0.311,0.064-0.588,0.098-0.832,0.098c-0.399,0-0.709-0.063-0.93-0.189
		c-0.219-0.126-0.375-0.293-0.464-0.498c-0.09-0.206-0.135-0.639-0.135-1.299V8.173h-0.807V7.316h0.807V5.709l1.095-0.66v2.268
		h1.105v0.856h-1.105v3.796c0,0.314,0.02,0.516,0.058,0.605c0.039,0.09,0.103,0.161,0.189,0.214
		c0.088,0.054,0.213,0.079,0.376,0.079C67.594,12.867,67.754,12.854,67.953,12.824z"/>
	<path d="M69.036,6.112V4.848h1.101v1.265H69.036z M69.036,13.809V7.316h1.101v6.492H69.036z"/>
	<path d="M71.402,10.563c0-1.201,0.334-2.092,1.002-2.671c0.559-0.481,1.239-0.722,2.042-0.722c0.893,0,1.622,0.293,2.188,0.877
		c0.566,0.586,0.85,1.394,0.85,2.424c0,0.836-0.125,1.493-0.375,1.973c-0.252,0.479-0.616,0.85-1.095,1.115
		c-0.479,0.265-1.002,0.396-1.568,0.396c-0.909,0-1.644-0.291-2.204-0.873C71.682,12.499,71.402,11.659,71.402,10.563z
		 M72.533,10.563c0,0.832,0.182,1.455,0.544,1.868s0.819,0.62,1.369,0.62c0.546,0,1.001-0.207,1.363-0.623s0.544-1.05,0.544-1.901
		c0-0.803-0.182-1.411-0.547-1.825c-0.365-0.413-0.818-0.62-1.36-0.62c-0.55,0-1.007,0.206-1.369,0.617
		C72.715,9.11,72.533,9.731,72.533,10.563z"/>
	<path d="M78.774,13.809V7.316h0.99V8.24c0.478-0.713,1.165-1.07,2.066-1.07c0.392,0,0.751,0.07,1.079,0.211
		s0.574,0.325,0.736,0.553c0.163,0.229,0.277,0.5,0.343,0.814c0.04,0.203,0.062,0.56,0.062,1.069v3.991h-1.102V9.859
		c0-0.447-0.042-0.783-0.128-1.005c-0.085-0.222-0.237-0.399-0.455-0.532s-0.474-0.198-0.768-0.198
		c-0.469,0-0.873,0.148-1.214,0.446c-0.34,0.297-0.51,0.861-0.51,1.693v3.545H78.774z"/>
	<path d="M90.414,13.809l-1.986-6.492h1.137l1.033,3.748l0.385,1.394c0.017-0.069,0.129-0.516,0.336-1.339l1.033-3.803h1.131
		l0.973,3.766l0.324,1.242l0.373-1.254l1.112-3.754h1.069l-2.029,6.492h-1.143l-1.033-3.888l-0.251-1.106l-1.314,4.994H90.414z"/>
	<path d="M98.264,6.112V4.848h1.1v1.265H98.264z M98.264,13.809V7.316h1.1v6.492H98.264z"/>
	<path d="M103.441,12.824l0.158,0.973c-0.309,0.064-0.586,0.098-0.831,0.098c-0.399,0-0.709-0.063-0.929-0.189
		c-0.221-0.126-0.375-0.293-0.465-0.498c-0.09-0.206-0.135-0.639-0.135-1.299V8.173h-0.807V7.316h0.807V5.709l1.094-0.66v2.268
		h1.107v0.856h-1.107v3.796c0,0.314,0.02,0.516,0.059,0.605s0.102,0.161,0.189,0.214c0.088,0.054,0.213,0.079,0.376,0.079
		C103.08,12.867,103.241,12.854,103.441,12.824z"/>
	<path d="M104.518,13.809V4.848h1.1v3.215c0.514-0.595,1.162-0.893,1.944-0.893c0.481,0,0.898,0.095,1.253,0.285
		c0.355,0.189,0.608,0.451,0.762,0.785c0.152,0.334,0.229,0.818,0.229,1.455v4.113h-1.1V9.695c0-0.551-0.119-0.951-0.357-1.201
		c-0.238-0.251-0.576-0.377-1.012-0.377c-0.326,0-0.633,0.085-0.92,0.254c-0.288,0.17-0.492,0.398-0.615,0.688
		c-0.122,0.29-0.184,0.689-0.184,1.199v3.551H104.518z"/>
	<path d="M111.785,8.57V7.316h1.254V8.57H111.785z M111.785,13.809v-1.253h1.254v1.253H111.785z"/>
</g>
<line fill="none" stroke="#000000" stroke-miterlimit="10" x1="0" y1="0.5" x2="115" y2="0.5"/>
<rect x="11.476" y="23.379" fill="#EF7D00" width="92.048" height="92.047"/>
<g>
	<path fill="#FFFFFF" d="M47.586,106.514c-1.304,0.858-2.716,1.274-4.237,1.274c-2.391,0-3.804-1.591-3.804-3.723
		c0-2.868,2.636-4.387,8.068-4.999v-0.714c0-0.932-0.706-1.471-2.011-1.471c-1.304,0-2.362,0.515-3.123,1.471l-2.281-1.299
		c1.195-1.666,3.015-2.501,5.46-2.501c3.341,0,5.215,1.446,5.215,3.8c0,0-0.005,9.264,0.002,9.288h-2.989L47.586,106.514z
		 M42.859,103.82c0,0.858,0.543,1.664,1.521,1.664c1.06,0,2.092-0.441,3.123-1.349v-3.035
		C44.354,101.493,42.859,102.302,42.859,103.82z"/>
	<g>
		<path fill="#FFFFFF" d="M53.539,95.164l2.789-0.385l0.308,1.52c1.575-1.152,2.825-1.766,4.4-1.766
			c2.635,0,3.993,1.397,3.993,4.167v8.921H61.66v-8.333c0-1.568-0.405-2.279-1.629-2.279c-1.005,0-2.01,0.466-3.15,1.422v9.19
			h-3.342V95.164z"/>
	</g>
	<path fill="#FFFFFF" d="M87.359,107.865c-3.775,0-6.03-2.426-6.03-6.642c0-4.264,2.282-6.69,5.976-6.69
		c3.694,0,5.894,2.354,5.894,6.521c0,0.22-0.026,0.44-0.026,0.661h-8.528c0.026,2.427,1.032,3.651,3.016,3.651
		c1.275,0,2.118-0.516,2.905-1.641l2.472,1.37C91.95,106.91,89.994,107.865,87.359,107.865z M89.886,99.534
		c0-1.717-0.979-2.722-2.581-2.722c-1.52,0-2.472,0.981-2.606,2.722H89.886z"/>
	<path fill="#FFFFFF" d="M22.804,108.006c-3.332,0-6.338-2.125-6.338-6.761s3.006-6.761,6.338-6.761
		c3.333,0,6.339,2.125,6.339,6.761S26.137,108.006,22.804,108.006z M22.804,97.334c-2.516,0-2.981,2.27-2.981,3.911
		c0,1.643,0.466,3.911,2.981,3.911c2.518,0,2.983-2.269,2.983-3.911C25.787,99.604,25.321,97.334,22.804,97.334z"/>
	<path fill="#FFFFFF" d="M31.454,94.821h3.205v1.507c0.61-0.812,2.119-1.77,3.531-1.77c0.136,0,0.299,0,0.436,0.023v3.162
		c-0.056,0-0.109,0-0.163,0c-1.467,0-3.07,0.226-3.585,1.365v8.521h-3.424V94.821z"/>
	<path fill="#FFFFFF" d="M73.285,104.88c2.559-0.02,2.772-2.62,2.772-4.32c0-2.001-0.979-3.631-2.796-3.631
		c-1.213,0-2.563,0.884-2.563,3.77C70.698,102.282,70.81,104.898,73.285,104.88z M79.296,94.774v12.131
		c0,2.142-0.163,5.664-6.269,5.703c-2.519,0.017-4.853-0.991-5.319-3.189l3.328-0.536c0.139,0.63,0.524,1.258,2.411,1.258
		c1.748,0,2.587-0.838,2.587-2.839v-1.491l-0.047-0.046c-0.536,0.954-1.351,1.862-3.309,1.862c-2.982,0-5.337-2.07-5.337-6.401
		c0-4.283,2.424-6.681,5.149-6.686c2.555-0.003,3.505,1.16,3.721,1.774l-0.038-0.008l0.276-1.532H79.296z"/>
	<path fill="#FFFFFF" d="M94.523,90.527h-1.325v3.668h-0.699v-3.668h-1.325v-0.563h3.35V90.527z M100.041,94.195h-0.699v-3.533
		H99.32l-1.387,3.533h-0.441l-1.386-3.533h-0.021v3.533h-0.698v-4.231h1.078l1.264,3.214l1.242-3.214h1.07V94.195z"/>
</g>
</svg>
