<?xml version="1.0" encoding="utf-8"?>
<!-- Generator: Adobe Illustrator 16.0.2, SVG Export Plug-In . SVG Version: 6.00 Build 0)  -->
<!DOCTYPE svg PUBLIC "-//W3C//DTD SVG 1.1//EN" "http://www.w3.org/Graphics/SVG/1.1/DTD/svg11.dtd">
<svg version="1.1" id="Layer_1" xmlns="http://www.w3.org/2000/svg" xmlns:xlink="http://www.w3.org/1999/xlink" x="0px" y="0px"
	 width="116.341px" height="102.359px" viewBox="0 0 116.341 102.359" enable-background="new 0 0 116.341 102.359"
	 xml:space="preserve">
<g>
	<g>
		<defs>
			<polygon id="SVGID_1_" points="0,102.359 116.341,102.359 116.341,0 0,0 0,102.359 			"/>
		</defs>
		<clipPath id="SVGID_2_">
			<use xlink:href="#SVGID_1_"  overflow="visible"/>
		</clipPath>
		<path clip-path="url(#SVGID_2_)" fill="#202F57" d="M41.573,27.043c-3.646,1.288-7.501-0.643-8.787-4.076
			c-1.287-3.649,0.644-7.511,4.07-8.798C74.355,0.437,74.355,0.437,74.355,0.437c3.644-1.288,7.501,0.429,8.784,4.077
			c1.287,3.433-0.43,7.296-4.07,8.583L41.573,27.043z"/>
		<path clip-path="url(#SVGID_2_)" fill="#202F57" d="M41.573,47.429c-3.646,1.286-7.501-0.645-8.787-4.078
			c-1.287-3.647,0.644-7.51,4.07-8.797c37.499-13.732,37.499-13.732,37.499-13.732c3.644-1.288,7.501,0.428,8.784,4.077
			c1.287,3.433-0.43,7.295-4.07,8.583L41.573,47.429z"/>
		<path clip-path="url(#SVGID_2_)" fill="#202F57" d="M41.573,67.813c-3.646,1.287-7.501-0.645-8.787-4.077
			c-1.287-3.648,0.644-7.509,4.07-8.798c37.499-13.732,37.499-13.732,37.499-13.732c3.644-1.287,7.501,0.429,8.784,4.077
			c1.287,3.433-0.43,7.296-4.07,8.583L41.573,67.813z"/>
		<polygon clip-path="url(#SVGID_2_)" fill="#202F57" points="0.216,84.764 12.646,84.764 12.646,88.197 4.499,88.197 4.499,90.986 
			12.427,90.986 12.427,94.633 4.499,94.633 4.499,97.638 12.859,97.638 12.859,101.287 0.216,101.287 0.216,84.764 0.216,84.764 		
			"/>
		
			<polygon clip-path="url(#SVGID_2_)" fill="none" stroke="#FFFFFF" stroke-width="0.1492" stroke-linecap="round" stroke-linejoin="round" stroke-miterlimit="10" points="
			0.216,84.764 12.646,84.764 12.646,88.197 4.499,88.197 4.499,90.986 12.427,90.986 12.427,94.633 4.499,94.633 4.499,97.638 
			12.859,97.638 12.859,101.287 0.216,101.287 0.216,84.764 0.216,84.764 		"/>
		<polygon clip-path="url(#SVGID_2_)" fill="#202F57" points="32.356,84.764 36.856,84.764 36.856,101.287 32.356,101.287 
			32.356,84.764 32.356,84.764 		"/>
		
			<polygon clip-path="url(#SVGID_2_)" fill="none" stroke="#FFFFFF" stroke-width="0.1492" stroke-linecap="round" stroke-linejoin="round" stroke-miterlimit="10" points="
			32.356,84.764 36.856,84.764 36.856,101.287 32.356,101.287 32.356,84.764 32.356,84.764 		"/>
		<path clip-path="url(#SVGID_2_)" fill="#202F57" d="M53.144,85.193c-0.218,3.433-0.218,3.433-0.218,3.433
			c-3.64-1.932-9.212-1.286-9.212,4.079c-0.215,5.577,5.572,6.436,9.43,4.504c0.213,3.648,0.213,3.648,0.213,3.648
			c-6.644,1.932-14.356,0-14.356-8.152C39,84.978,46.93,82.833,53.144,85.193L53.144,85.193z"/>
		<path clip-path="url(#SVGID_2_)" fill="#202F57" d="M66.427,84.978c-0.214,3.434-0.214,3.434-0.214,3.434
			c-2.356-1.288-6.644-1.288-6.644,0.644c0,3.003,7.713,0.859,7.713,7.081c0,6.008-7.285,6.223-11.999,4.721
			c0.214-3.648,0.214-3.648,0.214-3.648c3.002,1.289,7.289,1.717,7.289-0.643c0-2.791-7.714-1.289-7.714-7.082
			C55.072,84.548,61.069,83.261,66.427,84.978L66.427,84.978z"/>
		<path clip-path="url(#SVGID_2_)" fill="#202F57" d="M79.926,84.978c-0.213,3.434-0.213,3.434-0.213,3.434
			c-2.357-1.288-6.644-1.288-6.644,0.644c0,3.003,7.713,0.859,7.713,7.081c0,6.008-7.286,6.223-11.999,4.721
			c0.214-3.648,0.214-3.648,0.214-3.648c3,1.289,7.289,1.717,7.289-0.643c0-2.791-7.717-1.289-7.717-7.082
			C68.569,84.548,74.568,83.261,79.926,84.978L79.926,84.978z"/>
		<polygon clip-path="url(#SVGID_2_)" fill="#202F57" points="100.71,84.764 106.28,84.764 111.639,95.277 111.639,84.764 
			115.923,84.764 115.923,101.287 110.568,101.287 104.779,90.341 104.779,101.287 100.71,101.287 100.71,84.764 100.71,84.764 		
			"/>
		
			<polygon clip-path="url(#SVGID_2_)" fill="none" stroke="#FFFFFF" stroke-width="0.1492" stroke-linecap="round" stroke-linejoin="round" stroke-miterlimit="10" points="
			100.71,84.764 106.28,84.764 111.639,95.277 111.639,84.764 115.923,84.764 115.923,101.287 110.568,101.287 104.779,90.341 
			104.779,101.287 100.71,101.287 100.71,84.764 100.71,84.764 		"/>
		<path clip-path="url(#SVGID_2_)" fill="#202F57" d="M90.21,84.334c4.715,0,8.358,2.575,8.358,8.583
			c0,5.794-3.644,8.582-8.358,8.582c-4.5,0-8.142-2.788-8.142-8.582C82.068,86.91,85.71,84.334,90.21,84.334L90.21,84.334z
			 M86.783,92.917c0,2.575,1.071,5.364,3.427,5.364c2.572,0,3.645-2.789,3.645-5.364c0-2.146-1.072-5.365-3.645-5.365
			C87.854,87.552,86.783,90.341,86.783,92.917L86.783,92.917z"/>
		<path clip-path="url(#SVGID_2_)" fill="#202F57" d="M20.358,91.63c2.355,0,2.355,0,2.355,0c1.072,0,2.145-0.645,2.145-1.932
			c0-1.073-0.858-1.717-2.145-1.717c-2.355,0-2.355,0-2.355,0C20.358,91.63,20.358,91.63,20.358,91.63L20.358,91.63z M16.073,84.764
			c7.927,0,7.927,0,7.927,0c2.358,0,5.356,0.858,5.356,4.291c0,2.146-1.07,3.434-2.998,4.077c0.214,0,1.071,0.428,1.501,1.501
			c0,0.215,2.356,6.438,2.356,6.653c-4.717,0-4.717,0-4.717,0c-1.713-5.15-1.713-5.15-1.713-5.15
			c-0.213-0.644-0.856-1.072-1.498-1.072c-0.858,0-1.93-0.216-1.93,0c0,6.223,0,6.223,0,6.223c-4.285,0-4.285,0-4.285,0
			C16.073,84.764,16.073,84.764,16.073,84.764L16.073,84.764z"/>
	</g>
</g>
</svg>
