<?xml version="1.0" encoding="utf-8"?>
<!-- Generator: Adobe Illustrator 16.0.2, SVG Export Plug-In . SVG Version: 6.00 Build 0)  -->
<!DOCTYPE svg PUBLIC "-//W3C//DTD SVG 1.1//EN" "http://www.w3.org/Graphics/SVG/1.1/DTD/svg11.dtd">
<svg version="1.1" id="Layer_1" xmlns="http://www.w3.org/2000/svg" xmlns:xlink="http://www.w3.org/1999/xlink" x="0px" y="0px"
	 width="145.684px" height="145.684px" viewBox="0 0 145.684 145.684" enable-background="new 0 0 145.684 145.684"
	 xml:space="preserve">
<circle fill="#781E65" stroke="#FFFFFF" stroke-width="8" stroke-miterlimit="10" cx="72.842" cy="72.842" r="68.842"/>
<path fill-rule="evenodd" clip-rule="evenodd" fill="#FFFFFF" d="M106.205,51.408c-0.545-1.08-1.892-1.349-2.975-0.537
	c-0.81,0.537-1.347,1.888-0.539,2.969c3.514,5.396,5.398,11.877,5.398,18.894c0,19.435-15.655,35.357-35.358,35.357
	c-19.437,0-35.359-15.922-35.359-35.357c0-19.432,15.923-35.359,35.359-35.359c9.72,0,18.621,3.776,24.834,10.255
	c1.077,0.813,2.43,0.813,3.237,0c0.81-0.808,0.81-2.157,0-2.965c-7.291-7.29-17.005-11.611-28.071-11.611
	c-21.863,0-39.681,17.818-39.681,39.68c0,21.863,17.817,39.679,39.681,39.679c21.86,0,39.68-17.816,39.68-39.679
	C112.411,64.908,110.249,57.617,106.205,51.408L106.205,51.408z M60.587,53.57c0,38.057,0,38.057,0,38.057
	c0,3.779,2.698,3.779,4.047,2.698c1.349-1.349,23.213-16.465,24.559-17.813c1.084-1.079,1.893-2.159,1.893-3.779
	c0-1.618-0.809-2.697-1.893-3.78c-0.533-0.538-24.29-17.274-24.559-17.813C63.285,49.79,60.587,49.79,60.587,53.57L60.587,53.57z"/>
</svg>
