<?xml version="1.0" encoding="utf-8"?>
<!-- Generator: Adobe Illustrator 16.0.2, SVG Export Plug-In . SVG Version: 6.00 Build 0)  -->
<!DOCTYPE svg PUBLIC "-//W3C//DTD SVG 1.1//EN" "http://www.w3.org/Graphics/SVG/1.1/DTD/svg11.dtd">
<svg version="1.1" id="Layer_1" xmlns="http://www.w3.org/2000/svg" xmlns:xlink="http://www.w3.org/1999/xlink" x="0px" y="0px"
	 width="145.684px" height="145.684px" viewBox="0 0 145.684 145.684" enable-background="new 0 0 145.684 145.684"
	 xml:space="preserve">
<circle fill="#01A9D4" stroke="#FFFFFF" stroke-width="8" stroke-miterlimit="10" cx="72.842" cy="72.842" r="68.842"/>
<g>
	<g>
		<path fill-rule="evenodd" clip-rule="evenodd" fill="#FFFFFF" stroke="#FFFFFF" stroke-width="2" stroke-miterlimit="10" d="
			M103.461,97.625c-5.26,0-5.26,0-5.26,0c-0.752,0-1.502-0.751-1.502-1.503l0,0c0-0.752,0.75-1.504,1.502-1.504l0,0
			c5.26,0,5.26,0,5.26,0c2.815,0,4.882-1.315,6.574-3.193l0,0c1.503-1.692,2.441-4.135,2.441-6.014l0,0
			c0-3.008-1.316-5.638-3.569-7.705l0,0c-0.564-0.377-0.564-1.314-0.188-1.881l0,0c1.316-2.44,2.256-5.071,2.256-8.08l0,0
			c0-8.643-7.14-15.784-15.967-15.784l0,0c-3.38,0-6.572,1.127-9.204,3.006l0,0c-0.562,0.376-1.501,0.189-2.065-0.375l0,0
			c-4.133-5.639-10.896-9.396-18.597-9.396l0,0c-11.832,0-21.788,9.208-22.915,20.858l0,0c0,0.565-0.563,1.129-1.314,1.317l0,0
			c-6.573,1.316-11.457,7.14-11.457,14.095l0,0c0,2.817,1.127,6.387,3.191,8.832l0,0c2.068,2.629,4.697,4.32,7.891,4.32l0,0
			c51.841,0,47.342,0,47.342,0c0.752,0,1.502,0.752,1.502,1.504l0,0c0,0.752-0.75,1.503-1.502,1.503l0,0
			c-51.841,0-47.342,0-47.342,0c-4.32,0-7.891-2.255-10.143-5.448l0,0c-2.441-3.01-3.946-6.955-3.946-10.711l0,0
			c0-8.081,5.448-14.847,12.962-16.727l0,0c1.691-12.777,12.584-22.548,25.731-22.548l0,0c8.265,0,15.403,3.758,20.101,9.395l0,0
			c2.816-1.69,6.197-2.632,9.766-2.632l0,0c10.52,0,18.971,8.458,18.971,18.792l0,0c0,3.194-0.75,6.015-2.254,8.646l0,0
			c2.254,2.254,3.758,5.448,3.758,9.02l0,0c0,2.631-1.127,5.637-3.192,8.079l0,0C110.223,95.748,107.215,97.625,103.461,97.625
			L103.461,97.625L103.461,97.625L103.461,97.625z"/>
	</g>
</g>
</svg>
