<?xml version="1.0" encoding="utf-8"?>
<!-- Generator: Adobe Illustrator 16.0.2, SVG Export Plug-In . SVG Version: 6.00 Build 0)  -->
<!DOCTYPE svg PUBLIC "-//W3C//DTD SVG 1.1//EN" "http://www.w3.org/Graphics/SVG/1.1/DTD/svg11.dtd">
<svg version="1.1" id="Layer_1" xmlns="http://www.w3.org/2000/svg" xmlns:xlink="http://www.w3.org/1999/xlink" x="0px" y="0px"
	 width="145.684px" height="145.684px" viewBox="0 0 145.684 145.684" enable-background="new 0 0 145.684 145.684"
	 xml:space="preserve">
<circle fill="#781E65" stroke="#FFFFFF" stroke-width="8" stroke-miterlimit="10" cx="72.842" cy="72.842" r="68.842"/>
<g>
	<g>
		<path fill-rule="evenodd" clip-rule="evenodd" fill="#FFFFFF" stroke="#FFFFFF" stroke-miterlimit="10" d="M97.42,41.166
			c2.484,2.483,4.558,4.971,6.213,7.868c0.417,0.415,0.833,0.622,1.452,0.622c0.205,0,0.622,0,0.829-0.207
			c0.829-0.415,1.036-1.451,0.624-2.278c-1.867-2.899-4.145-5.795-6.841-8.488c-0.621-0.62-1.657-0.62-2.277,0
			C96.797,39.509,96.797,40.546,97.42,41.166L97.42,41.166z M64.469,47.789c-5.595,0-5.595,0-5.595,0
			c-1.039,0-2.075,0.417-2.904,1.245C43.948,61.041,43.948,61.041,43.948,61.041l0,0c-0.617,0.621-1.654,1.242-2.691,1.449
			c-0.416,0.206-0.828,0.206-1.034,0.206c-0.21,0-0.416,0-0.416,0c-4.974,0-4.974,0-4.974,0c-2.277,0-4.146,1.866-4.146,4.144
			c0,12.836,0,12.836,0,12.836c0,2.068,1.868,3.932,4.146,3.932c4.974,0,4.974,0,4.974,0c0.206,0,0.828,0.209,1.45,0.414
			c1.037,0.207,2.074,0.623,2.691,1.243c12.232,12.214,12.232,12.214,12.232,12.214l0,0c0.618,0.83,1.654,1.246,2.693,1.246
			c5.595,0,5.595,0,5.595,0c2.277,0,3.938-1.865,3.938-4.143c0-42.858,0-42.858,0-42.858C68.406,49.448,66.746,47.789,64.469,47.789
			L64.469,47.789z M65.092,94.582c0,0.414-0.209,0.828-0.623,0.828c-5.595,0-5.595,0-5.595,0c-0.211,0-0.211-0.207-0.416-0.207l0,0
			C46.231,82.988,46.231,82.988,46.231,82.988c-2.488-2.484-6.009-2.693-6.219-2.693l0,0c-5.18,0-5.18,0-5.18,0
			c-0.413,0-0.831-0.207-0.831-0.619c0-12.836,0-12.836,0-12.836c0-0.417,0.418-0.829,0.831-0.829c5.18,0,5.18,0,5.18,0l0,0
			c0.21,0,3.73,0,6.219-2.693l0,0c12.227-12.007,12.227-12.007,12.227-12.007c0.205-0.206,0.205-0.206,0.416-0.206
			c5.595,0,5.595,0,5.595,0c0.414,0,0.623,0.206,0.623,0.619V94.582L65.092,94.582L65.092,94.582z M110.644,54.967
			c-0.415-0.828-1.449-1.036-2.277-0.828c-0.828,0.415-1.035,1.448-0.828,2.277l0,0c2.9,6.004,3.143,10.423,3.143,16.84
			c0,11.593-4.35,23.19-13.261,32.093c-0.623,0.619-0.623,1.654,0,2.274c0.206,0.415,0.62,0.415,1.239,0.415
			c0.417,0,0.833,0,1.038-0.415c9.531-9.524,14.299-21.942,14.299-34.367C113.996,66.423,113.548,61.385,110.644,54.967
			L110.644,54.967z M89.75,48.827c-0.62-0.83-1.655-0.83-2.28,0c-0.62,0.621-0.62,1.656,0,2.277
			c6.013,6.002,9.117,14.078,9.117,22.152c0,7.866-3.104,15.942-9.117,22.153c-0.62,0.621-0.62,1.656,0,2.277
			c0.208,0.412,0.625,0.412,1.039,0.412c0.41,0,0.825,0,1.241-0.412c6.837-6.832,10.154-15.527,10.154-24.431
			C99.904,64.354,96.587,55.454,89.75,48.827L89.75,48.827z M77.523,58.764c-0.829,0.622-0.829,1.657,0,2.277l0,0
			c3.316,3.313,4.974,7.869,4.974,12.216c0,4.349-1.657,8.698-4.974,12.212c-0.829,0.623-0.829,1.66,0,2.28
			c0.209,0.208,0.624,0.415,1.036,0.415s0.828-0.207,1.243-0.415c3.938-3.933,6.011-9.315,6.011-14.492
			c0-5.383-2.072-10.561-6.011-14.493C79.184,58.143,78.147,58.143,77.523,58.764L77.523,58.764z"/>
	</g>
</g>
</svg>
