<?xml version="1.0" encoding="utf-8"?>
<!-- Generator: Adobe Illustrator 16.0.2, SVG Export Plug-In . SVG Version: 6.00 Build 0)  -->
<!DOCTYPE svg PUBLIC "-//W3C//DTD SVG 1.1//EN" "http://www.w3.org/Graphics/SVG/1.1/DTD/svg11.dtd">
<svg version="1.1" id="Layer_1" xmlns="http://www.w3.org/2000/svg" xmlns:xlink="http://www.w3.org/1999/xlink" x="0px" y="0px"
	 width="145.684px" height="145.684px" viewBox="0 0 145.684 145.684" enable-background="new 0 0 145.684 145.684"
	 xml:space="preserve">
<circle fill="#E3231C" stroke="#FFFFFF" stroke-width="8" stroke-miterlimit="10" cx="72.842" cy="72.842" r="68.842"/>
<g>
	<g>
		<g>
			<g>
				<path fill-rule="evenodd" clip-rule="evenodd" fill="#FFFFFF" d="M105.556,51.776c-0.528-1.069-1.861-1.333-2.928-0.535
					c-0.804,0.535-1.336,1.866-0.539,2.933c3.467,5.333,5.336,11.735,5.336,18.667c0,19.2-15.466,34.935-34.932,34.935
					c-19.201,0-34.931-15.734-34.931-34.935s15.729-34.931,34.931-34.931c9.599,0,18.397,3.731,24.53,10.13
					c1.068,0.801,2.4,0.801,3.204,0c0.799-0.797,0.799-2.132,0-2.931c-7.202-7.199-16.801-11.467-27.734-11.467
					c-21.604,0-39.201,17.599-39.201,39.199c0,21.599,17.598,39.198,39.201,39.198c21.6,0,39.201-17.6,39.201-39.198
					C111.694,65.112,109.56,57.91,105.556,51.776L105.556,51.776z"/>
			</g>
		</g>
		<g>
			<circle fill-rule="evenodd" clip-rule="evenodd" fill="#FFFFFF" cx="72.491" cy="72.842" r="18.758"/>
		</g>
	</g>
</g>
</svg>
