<?xml version="1.0" encoding="utf-8"?>
<!-- Generator: Adobe Illustrator 16.0.2, SVG Export Plug-In . SVG Version: 6.00 Build 0)  -->
<!DOCTYPE svg PUBLIC "-//W3C//DTD SVG 1.1//EN" "http://www.w3.org/Graphics/SVG/1.1/DTD/svg11.dtd">
<svg version="1.1" id="Layer_1" xmlns="http://www.w3.org/2000/svg" xmlns:xlink="http://www.w3.org/1999/xlink" x="0px" y="0px"
	 width="388.911px" height="478.914px" viewBox="0 0 388.911 478.914" enable-background="new 0 0 388.911 478.914"
	 xml:space="preserve">
<g>
	<path fill="#FFFFFF" d="M385.391,467.428c0,4.4-3.6,8-8,8H11.479c-4.399,0-8-3.6-8-8V11.514c0-4.4,3.601-8,8-8h365.911
		c4.4,0,8,3.6,8,8V467.428z"/>
	<path fill="none" stroke="#01A9D4" stroke-width="7" stroke-miterlimit="10" d="M385.391,467.428c0,4.4-3.6,8-8,8H11.479
		c-4.399,0-8-3.6-8-8V11.514c0-4.4,3.601-8,8-8h365.911c4.4,0,8,3.6,8,8V467.428z"/>
</g>
<rect x="3.698" y="6.514" fill="#01A9D4" width="381.474" height="47.072"/>
<text transform="matrix(1 0 0 1 78.7505 37.5952)" fill="#FFFFFF" font-family="'ArialMT'" font-size="26.2572">SHARE FEATURES</text>
<g>
	<path fill="#EDEDED" d="M175.733,238.125c0,4.677-3.827,8.504-8.504,8.504H35.641c-4.678,0-8.504-3.827-8.504-8.504V106.536
		c0-4.677,3.826-8.504,8.504-8.504h131.589c4.677,0,8.504,3.827,8.504,8.504V238.125z"/>
	<path fill="none" stroke="#C6C6C6" stroke-width="3" stroke-miterlimit="10" d="M175.733,238.125c0,4.677-3.827,8.504-8.504,8.504
		H35.641c-4.678,0-8.504-3.827-8.504-8.504V106.536c0-4.677,3.826-8.504,8.504-8.504h131.589c4.677,0,8.504,3.827,8.504,8.504
		V238.125z"/>
</g>
<g>
	<path fill="#EDEDED" d="M361.733,237.664c0,4.677-3.827,8.504-8.504,8.504H221.643c-4.677,0-8.504-3.827-8.504-8.504V106.076
		c0-4.677,3.827-8.504,8.504-8.504h131.587c4.677,0,8.504,3.827,8.504,8.504V237.664z"/>
	<path fill="none" stroke="#C6C6C6" stroke-width="3" stroke-miterlimit="10" d="M361.733,237.664c0,4.677-3.827,8.504-8.504,8.504
		H221.643c-4.677,0-8.504-3.827-8.504-8.504V106.076c0-4.677,3.827-8.504,8.504-8.504h131.587c4.677,0,8.504,3.827,8.504,8.504
		V237.664z"/>
</g>
<g>
	<path fill="#E3231C" d="M176.203,420.289c0,4.677-3.827,8.504-8.504,8.504H36.108c-4.677,0-8.504-3.827-8.504-8.504V288.7
		c0-4.677,3.827-8.504,8.504-8.504h131.591c4.677,0,8.504,3.827,8.504,8.504V420.289z"/>
</g>
<g>
	<path fill="#EDEDED" d="M361.733,420.058c0,4.677-3.827,8.504-8.504,8.504H221.64c-4.677,0-8.504-3.827-8.504-8.504V288.469
		c0-4.677,3.827-8.504,8.504-8.504h131.59c4.677,0,8.504,3.827,8.504,8.504V420.058z"/>
	<path fill="none" stroke="#C6C6C6" stroke-width="3" stroke-miterlimit="10" d="M361.733,420.058c0,4.677-3.827,8.504-8.504,8.504
		H221.64c-4.677,0-8.504-3.827-8.504-8.504V288.469c0-4.677,3.827-8.504,8.504-8.504h131.59c4.677,0,8.504,3.827,8.504,8.504
		V420.058z"/>
</g>
<path fill-rule="evenodd" clip-rule="evenodd" fill="#C6C6C6" d="M315.482,321.68c-0.473-0.937-1.642-1.171-2.581-0.466
	c-0.701,0.466-1.167,1.638-0.467,2.574c3.048,4.68,4.682,10.301,4.682,16.386c0,16.856-13.577,30.665-30.666,30.665
	c-16.854,0-30.666-13.809-30.666-30.665c0-16.853,13.812-30.666,30.666-30.666c8.431,0,16.152,3.275,21.538,8.895
	c0.936,0.704,2.108,0.704,2.808,0c0.703-0.701,0.703-1.871,0-2.572c-6.321-6.322-14.747-10.069-24.346-10.069
	c-18.96,0-34.413,15.453-34.413,34.413c0,18.962,15.453,34.413,34.413,34.413s34.414-15.451,34.414-34.413
	C320.864,333.388,318.989,327.064,315.482,321.68L315.482,321.68z M275.918,323.555c0,33.006,0,33.006,0,33.006
	c0,3.277,2.34,3.277,3.51,2.34c1.171-1.169,20.133-14.279,21.3-15.449c0.939-0.936,1.642-1.872,1.642-3.277
	c0-1.402-0.702-2.339-1.642-3.277c-0.464-0.467-21.066-14.981-21.3-15.449C278.258,320.275,275.918,320.275,275.918,323.555
	L275.918,323.555z"/>
<g>
	<path fill-rule="evenodd" clip-rule="evenodd" fill="#FFFFFF" d="M128.568,321.685c-0.465-0.936-1.635-1.169-2.571-0.468
		c-0.705,0.468-1.172,1.638-0.471,2.574c3.042,4.681,4.684,10.3,4.684,16.383c0,16.852-13.576,30.661-30.659,30.661
		c-16.852,0-30.658-13.81-30.658-30.661c0-16.85,13.807-30.657,30.658-30.657c8.424,0,16.146,3.276,21.529,8.892
		c0.937,0.703,2.106,0.703,2.812,0c0.702-0.701,0.702-1.872,0-2.573c-6.322-6.318-14.746-10.064-24.341-10.064
		c-18.96,0-34.405,15.446-34.405,34.403s15.445,34.403,34.405,34.403c18.956,0,34.403-15.446,34.403-34.403
		C133.954,333.39,132.082,327.069,128.568,321.685L128.568,321.685z"/>
	<circle fill-rule="evenodd" clip-rule="evenodd" fill="#FFFFFF" cx="99.549" cy="340.174" r="16.464"/>
</g>
<g>
	<text transform="matrix(1 0 0 1 265.207 408.498)" fill="#C6C6C6" font-family="'ArialMT'" font-size="18.1114">PLAY</text>
</g>
<g>
	<text transform="matrix(1 0 0 1 61.5283 408.498)" fill="#FFFFFF" font-family="'ArialMT'" font-size="18.1114">RECORD</text>
</g>
<g>
	<text transform="matrix(1 0 0 1 68.7334 207.3496)"><tspan x="0" y="0" fill="#C6C6C6" font-family="'ArialMT'" font-size="18.1114">CLOUD</tspan><tspan x="0.499" y="21.733" fill="#C6C6C6" font-family="'ArialMT'" font-size="18.1114">SHARE</tspan></text>
</g>
<g>
	<g>
		<path fill-rule="evenodd" clip-rule="evenodd" fill="#C6C6C6" d="M133.999,175.734c-5.208,0-5.208,0-5.208,0
			c-0.744,0-1.487-0.744-1.487-1.487l0,0c0-0.745,0.743-1.489,1.487-1.489l0,0c5.208,0,5.208,0,5.208,0
			c2.787,0,4.833-1.303,6.509-3.162l0,0c1.487-1.676,2.416-4.094,2.416-5.953l0,0c0-2.978-1.303-5.582-3.533-7.629l0,0
			c-0.559-0.373-0.559-1.302-0.188-1.861l0,0c1.305-2.417,2.233-5.021,2.233-8l0,0c0-8.557-7.067-15.627-15.807-15.627l0,0
			c-3.347,0-6.508,1.116-9.113,2.977l0,0c-0.556,0.372-1.486,0.188-2.045-0.372l0,0c-4.092-5.582-10.788-9.303-18.411-9.303l0,0
			c-11.714,0-21.571,9.116-22.687,20.65l0,0c0,0.56-0.558,1.118-1.302,1.304l0,0c-6.508,1.303-11.343,7.069-11.343,13.954l0,0
			c0,2.79,1.115,6.324,3.16,8.744l0,0c2.047,2.604,4.65,4.278,7.812,4.278l0,0c51.325,0,51.325,0,51.325,0
			c0.743,0,1.486,0.744,1.486,1.489l0,0c0,0.743-0.743,1.487-1.486,1.487l0,0c-51.325,0-51.325,0-51.325,0
			c-4.277,0-7.812-2.232-10.041-5.395l0,0c-2.417-2.979-3.907-6.885-3.907-10.604l0,0c0-8,5.395-14.698,12.832-16.56l0,0
			c1.675-12.65,12.459-22.323,25.476-22.323l0,0c8.183,0,15.25,3.721,19.9,9.301l0,0c2.789-1.674,6.135-2.605,9.669-2.605l0,0
			c10.414,0,18.782,8.373,18.782,18.604l0,0c0,3.162-0.743,5.955-2.231,8.56l0,0c2.231,2.231,3.719,5.395,3.719,8.931l0,0
			c0,2.604-1.114,5.581-3.16,7.998l0,0C140.692,173.876,137.716,175.734,133.999,175.734L133.999,175.734L133.999,175.734
			L133.999,175.734z"/>
	</g>
</g>
<g>
	<text transform="matrix(1 0 0 1 235.6104 207.7432)"><tspan x="0" y="0" fill="#C6C6C6" font-family="'ArialMT'" font-size="18.1114">ANNOUNCE</tspan><tspan x="20.628" y="21.733" fill="#C6C6C6" font-family="'ArialMT'" font-size="18.1114">NOTES</tspan></text>
</g>
<g>
	<g>
		<path fill-rule="evenodd" clip-rule="evenodd" fill="#C6C6C6" d="M308.243,121.915c2.037,2.036,3.737,4.076,5.095,6.451
			c0.342,0.34,0.683,0.51,1.19,0.51c0.168,0,0.51,0,0.68-0.17c0.68-0.34,0.85-1.189,0.512-1.868
			c-1.531-2.377-3.398-4.752-5.609-6.96c-0.509-0.509-1.358-0.509-1.867,0C307.732,120.557,307.732,121.407,308.243,121.915
			L308.243,121.915z M281.225,127.346c-4.587,0-4.587,0-4.587,0c-0.853,0-1.702,0.342-2.382,1.021
			c-9.857,9.846-9.857,9.846-9.857,9.846l0,0c-0.506,0.509-1.356,1.019-2.206,1.188c-0.342,0.169-0.68,0.169-0.849,0.169
			c-0.172,0-0.341,0-0.341,0c-4.078,0-4.078,0-4.078,0c-1.867,0-3.399,1.53-3.399,3.397c0,10.525,0,10.525,0,10.525
			c0,1.695,1.532,3.224,3.399,3.224c4.078,0,4.078,0,4.078,0c0.169,0,0.679,0.171,1.189,0.34c0.85,0.169,1.7,0.511,2.206,1.019
			c10.03,10.016,10.03,10.016,10.03,10.016l0,0c0.507,0.68,1.356,1.021,2.209,1.021c4.587,0,4.587,0,4.587,0
			c1.867,0,3.229-1.529,3.229-3.396c0-35.143,0-35.143,0-35.143C284.453,128.706,283.092,127.346,281.225,127.346L281.225,127.346z
			 M281.735,165.715c0,0.339-0.171,0.679-0.511,0.679c-4.587,0-4.587,0-4.587,0c-0.174,0-0.174-0.17-0.342-0.17l0,0
			c-10.025-10.016-10.025-10.016-10.025-10.016c-2.04-2.037-4.927-2.208-5.099-2.208l0,0c-4.247,0-4.247,0-4.247,0
			c-0.339,0-0.682-0.171-0.682-0.508c0-10.525,0-10.525,0-10.525c0-0.342,0.343-0.68,0.682-0.68c4.247,0,4.247,0,4.247,0l0,0
			c0.172,0,3.059,0,5.099-2.208l0,0c10.025-9.846,10.025-9.846,10.025-9.846c0.168-0.169,0.168-0.169,0.342-0.169
			c4.587,0,4.587,0,4.587,0c0.34,0,0.511,0.169,0.511,0.508V165.715L281.735,165.715L281.735,165.715z M318.267,131.592
			c-0.341-0.679-1.188-0.85-1.868-0.679c-0.679,0.34-0.849,1.188-0.679,1.867l0,0c2.378,4.923,3.396,10.187,3.396,15.448
			c0,9.506-3.566,19.016-10.873,26.314c-0.511,0.508-0.511,1.356,0,1.865c0.169,0.34,0.509,0.34,1.017,0.34
			c0.342,0,0.683,0,0.851-0.34c7.815-7.81,11.725-17.992,11.725-28.18C321.835,142.625,320.647,136.854,318.267,131.592
			L318.267,131.592z M301.954,128.197c-0.509-0.681-1.357-0.681-1.869,0c-0.509,0.509-0.509,1.357,0,1.867
			c4.93,4.922,7.476,11.543,7.476,18.164c0,6.45-2.546,13.072-7.476,18.165c-0.509,0.509-0.509,1.358,0,1.867
			c0.17,0.338,0.512,0.338,0.852,0.338c0.336,0,0.677,0,1.018-0.338c5.606-5.603,8.326-12.732,8.326-20.032
			S307.561,133.631,301.954,128.197L301.954,128.197z M291.929,136.345c-0.68,0.51-0.68,1.358,0,1.867l0,0
			c2.72,2.717,4.078,6.452,4.078,10.017c0,3.565-1.358,7.132-4.078,10.014c-0.68,0.511-0.68,1.36,0,1.869
			c0.172,0.171,0.512,0.34,0.85,0.34s0.68-0.169,1.02-0.34c3.229-3.225,4.929-7.638,4.929-11.883c0-4.414-1.699-8.659-4.929-11.884
			C293.29,135.836,292.44,135.836,291.929,136.345L291.929,136.345z"/>
	</g>
</g>
</svg>
