<?xml version="1.0" encoding="utf-8"?>
<!-- Generator: Adobe Illustrator 16.0.2, SVG Export Plug-In . SVG Version: 6.00 Build 0)  -->
<!DOCTYPE svg PUBLIC "-//W3C//DTD SVG 1.1//EN" "http://www.w3.org/Graphics/SVG/1.1/DTD/svg11.dtd">
<svg version="1.1" id="Layer_1" xmlns="http://www.w3.org/2000/svg" xmlns:xlink="http://www.w3.org/1999/xlink" x="0px" y="0px"
	 width="73.287px" height="90.181px" viewBox="0 0 73.287 90.181" enable-background="new 0 0 73.287 90.181" xml:space="preserve">
<g>
	<path fill="#01A9D4" d="M4.601,90.181C2.06,90.181,0,88.123,0,85.582V71.794c0-2.541,2.06-4.601,4.601-4.601
		c2.54,0,4.6,2.06,4.6,4.601v13.787C9.2,88.123,7.141,90.181,4.601,90.181z"/>
	<path fill="#01A9D4" d="M25.957,90.181c-2.54,0-4.601-2.059-4.601-4.6v-39.77c0-2.542,2.061-4.602,4.601-4.602
		c2.541,0,4.601,2.06,4.601,4.602v39.77C30.558,88.123,28.498,90.181,25.957,90.181z"/>
	<path fill="#01A9D4" d="M47.33,90.181c-2.541,0-4.601-2.059-4.601-4.6V4.601C42.729,2.06,44.789,0,47.33,0
		c2.54,0,4.6,2.06,4.6,4.601v80.981C51.93,88.123,49.87,90.181,47.33,90.181z"/>
	<path fill="#01A9D4" d="M68.687,89.988c-2.541,0-4.601-2.059-4.601-4.6V61.37c0-2.541,2.06-4.601,4.601-4.601
		s4.601,2.06,4.601,4.601v24.019C73.287,87.929,71.228,89.988,68.687,89.988z"/>
</g>
</svg>
