<?xml version="1.0" encoding="utf-8"?>
<!-- Generator: Adobe Illustrator 16.0.2, SVG Export Plug-In . SVG Version: 6.00 Build 0)  -->
<!DOCTYPE svg PUBLIC "-//W3C//DTD SVG 1.1//EN" "http://www.w3.org/Graphics/SVG/1.1/DTD/svg11.dtd">
<svg version="1.1" id="Layer_1" xmlns="http://www.w3.org/2000/svg" xmlns:xlink="http://www.w3.org/1999/xlink" x="0px" y="0px"
	 width="72.287px" height="90.182px" viewBox="0 0 72.287 90.182" enable-background="new 0 0 72.287 90.182" xml:space="preserve">
<g>
	<path fill="#781E65" d="M4.601,90.182C2.06,90.182,0,88.123,0,85.582V71.794c0-2.541,2.06-4.601,4.601-4.601
		c2.54,0,4.6,2.06,4.6,4.601v13.788C9.2,88.123,7.141,90.182,4.601,90.182z"/>
	<path fill="#781E65" d="M25.957,90.182c-2.54,0-4.601-2.06-4.601-4.601v-39.77c0-2.541,2.061-4.601,4.601-4.601
		c2.541,0,4.601,2.06,4.601,4.601v39.77C30.558,88.122,28.498,90.182,25.957,90.182z"/>
	<path fill="#781E65" d="M67.688,90.182c-2.541,0-4.601-2.059-4.601-4.6V4.601C63.087,2.06,65.146,0,67.688,0
		c2.54,0,4.6,2.06,4.6,4.601v80.981C72.287,88.123,70.228,90.182,67.688,90.182z"/>
	<path fill="#781E65" d="M47.001,89.988c-2.541,0-4.601-2.06-4.601-4.6v-24.02c0-2.541,2.06-4.6,4.601-4.6s4.601,2.059,4.601,4.6
		v24.02C51.602,87.929,49.542,89.988,47.001,89.988z"/>
</g>
</svg>
