<?xml version="1.0" encoding="utf-8"?>
<!-- Generator: Adobe Illustrator 16.0.2, SVG Export Plug-In . SVG Version: 6.00 Build 0)  -->
<!DOCTYPE svg PUBLIC "-//W3C//DTD SVG 1.1//EN" "http://www.w3.org/Graphics/SVG/1.1/DTD/svg11.dtd">
<svg version="1.1" id="Layer_1" xmlns="http://www.w3.org/2000/svg" xmlns:xlink="http://www.w3.org/1999/xlink" x="0px" y="0px"
	 width="279.25px" height="184.943px" viewBox="0 0 279.25 184.943" enable-background="new 0 0 279.25 184.943"
	 xml:space="preserve">
<g>
	<path fill="#FFFFFF" d="M274.75,168.443c0,6.6-5.399,12-12,12H16.5c-6.601,0-12-5.4-12-12V16.5c0-6.6,5.399-12,12-12h246.25
		c6.601,0,12,5.4,12,12V168.443z"/>
	<path fill="none" stroke="#781E65" stroke-width="9" stroke-miterlimit="10" d="M274.75,168.443c0,6.6-5.399,12-12,12H16.5
		c-6.601,0-12-5.4-12-12V16.5c0-6.6,5.399-12,12-12h246.25c6.601,0,12,5.4,12,12V168.443z"/>
</g>
<line fill="none" stroke="#781E65" stroke-width="7" stroke-miterlimit="10" x1="246.431" y1="4.5" x2="246.431" y2="180.443"/>
<circle fill="#781E65" cx="260.194" cy="92.473" r="6.915"/>
</svg>
