<?xml version="1.0" encoding="utf-8"?>
<!-- Generator: Adobe Illustrator 16.0.2, SVG Export Plug-In . SVG Version: 6.00 Build 0)  -->
<!DOCTYPE svg PUBLIC "-//W3C//DTD SVG 1.1//EN" "http://www.w3.org/Graphics/SVG/1.1/DTD/svg11.dtd">
<svg version="1.1" id="Layer_1" xmlns="http://www.w3.org/2000/svg" xmlns:xlink="http://www.w3.org/1999/xlink" x="0px" y="0px"
	 width="398.729px" height="281.796px" viewBox="0 0 398.729 281.796" enable-background="new 0 0 398.729 281.796"
	 xml:space="preserve">
<path fill-rule="evenodd" clip-rule="evenodd" fill="#FFFFFF" stroke="#282F6B" stroke-width="12" stroke-miterlimit="10" d="
	M6,176.578c0,38.656,31.338,69.992,69.992,69.992c6.158,0,12.127-0.802,17.816-2.295c19.455,19.474,46.342,31.521,76.045,31.521
	c26.838,0,51.378-9.838,70.214-26.102c9.279,4.543,19.707,7.102,30.735,7.102c18.513,0,35.335-7.2,47.852-18.937
	c7.175,4,15.433,6.287,24.229,6.287c27.529,0,49.846-22.316,49.846-49.846c0-15.069-6.696-28.566-17.265-37.706
	c6.782-11.703,10.683-25.284,10.683-39.783c0-43.901-35.588-79.489-79.488-79.489c-17.249,0-33.201,5.512-46.229,14.844
	C241.015,24.266,208.717,6,172.148,6c-57.35,0-104.203,44.912-107.32,101.482C31.482,112.829,6,141.723,6,176.578z"/>
<g>
	<path fill="#282F6B" d="M125.532,171.978v-35.355h-13.207v-4.73h31.773v4.73h-13.262v35.355H125.532z"/>
	<path fill="#282F6B" d="M149.649,171.978v-40.086h28.984v4.73h-23.68V148.9h22.176v4.703h-22.176v13.645h24.609v4.73H149.649z"/>
	<path fill="#282F6B" d="M186.673,171.978v-40.086h5.305v35.355h19.742v4.73H186.673z"/>
	<path fill="#282F6B" d="M246.638,157.923l5.305,1.34c-1.112,4.357-3.113,7.679-6.002,9.967c-2.89,2.288-6.422,3.432-10.596,3.432
		c-4.32,0-7.834-0.879-10.541-2.639c-2.707-1.759-4.768-4.307-6.18-7.643c-1.413-3.336-2.119-6.918-2.119-10.746
		c0-4.174,0.797-7.815,2.393-10.924c1.595-3.108,3.864-5.469,6.809-7.082c2.943-1.613,6.184-2.42,9.721-2.42
		c4.01,0,7.383,1.021,10.117,3.063c2.734,2.042,4.639,4.913,5.715,8.613l-5.223,1.23c-0.93-2.917-2.279-5.04-4.047-6.371
		c-1.769-1.331-3.992-1.996-6.672-1.996c-3.081,0-5.656,0.738-7.725,2.215c-2.069,1.477-3.523,3.459-4.361,5.947
		c-0.839,2.488-1.258,5.054-1.258,7.697c0,3.409,0.496,6.385,1.49,8.928c0.993,2.543,2.538,4.443,4.635,5.701
		c2.096,1.258,4.365,1.887,6.809,1.887c2.971,0,5.486-0.856,7.547-2.57C244.514,163.839,245.908,161.296,246.638,157.923z"/>
	<path fill="#282F6B" d="M256.864,152.455c0-6.653,1.786-11.862,5.359-15.627c3.572-3.764,8.185-5.646,13.836-5.646
		c3.7,0,7.036,0.884,10.008,2.652c2.971,1.769,5.236,4.234,6.795,7.396c1.559,3.163,2.338,6.75,2.338,10.76
		c0,4.065-0.82,7.702-2.461,10.91c-1.641,3.208-3.965,5.638-6.973,7.287c-3.008,1.65-6.253,2.475-9.734,2.475
		c-3.773,0-7.146-0.911-10.117-2.734c-2.972-1.823-5.223-4.311-6.754-7.465C257.63,159.309,256.864,155.973,256.864,152.455z
		 M262.333,152.537c0,4.831,1.299,8.636,3.896,11.416c2.598,2.78,5.855,4.17,9.775,4.17c3.992,0,7.277-1.403,9.857-4.211
		c2.579-2.807,3.869-6.79,3.869-11.949c0-3.263-0.552-6.111-1.654-8.545c-1.104-2.434-2.717-4.32-4.84-5.66
		c-2.124-1.34-4.508-2.01-7.15-2.01c-3.756,0-6.986,1.29-9.693,3.869C263.687,142.196,262.333,146.503,262.333,152.537z"/>
</g>
</svg>
