<?xml version="1.0" encoding="utf-8"?>
<!-- Generator: Adobe Illustrator 16.0.2, SVG Export Plug-In . SVG Version: 6.00 Build 0)  -->
<!DOCTYPE svg PUBLIC "-//W3C//DTD SVG 1.1//EN" "http://www.w3.org/Graphics/SVG/1.1/DTD/svg11.dtd">
<svg version="1.1" id="Layer_1" xmlns="http://www.w3.org/2000/svg" xmlns:xlink="http://www.w3.org/1999/xlink" x="0px" y="0px"
	 width="148.619px" height="148.622px" viewBox="0 0 148.619 148.622" enable-background="new 0 0 148.619 148.622"
	 xml:space="preserve">
<circle fill="#282F6B" stroke="#FFFFFF" stroke-width="8" stroke-miterlimit="10" cx="74.31" cy="74.312" r="70.31"/>
<g>
	<path fill-rule="evenodd" clip-rule="evenodd" fill="#FFFFFF" d="M107.528,66.877c0-6.688-3.927-11.408-8.638-15.931
		c-0.785-0.59-1.767-0.59-2.356,0c-0.587,0.589-0.587,1.572,0.197,2.163c4.318,4.131,7.655,8.261,7.655,13.768
		c0,6.491-3.729,12.193-10.404,16.717c-6.478,4.327-15.705,7.081-25.913,7.081c-6.674,0-12.761-1.179-18.257-3.147
		c0,0-0.591-0.394-1.374,0c-4.124,2.754-11.779,5.507-14.921,6.49c0.589-0.59,1.179-1.18,1.766-1.966
		c1.965-1.968,5.105-6.294,5.696-7.671c0.391-1.376-0.591-1.969-0.591-1.969c-5.498-4.325-8.638-9.635-8.638-15.536
		c0-6.294,3.729-12.194,10.209-16.521c6.479-4.328,15.704-7.081,26.109-7.081c9.424,0,17.669,2.556,24.147,6.49
		c0.588,0.393,1.569,0.197,2.159-0.59c0.393-0.787,0.195-1.771-0.59-2.164c-6.869-4.13-15.704-6.883-25.717-6.883
		c-10.993,0-20.81,2.753-27.877,7.67c-7.067,4.72-11.582,11.407-11.582,19.079c0,6.491,3.338,12.391,8.441,16.914
		c0.393,0.197,0.196,0.591,0,0.787c-1.178,2.163-2.748,4.132-4.123,5.704c-0.98,0.982-1.766,1.771-2.355,2.359
		c-0.589,0.59-0.982,0.984-1.179,1.181c-0.392,0.59-0.784,0.983-0.784,1.967c0,0.394,0.195,1.181,0.784,1.574
		c0.59,0.394,1.179,0.59,1.57,0.59c0.591,0,0.983-0.196,1.571-0.196c1.57-0.592,9.424-2.951,16.491-6.886
		c0.393-0.195,0.588,0,0.785,0c5.496,1.968,11.778,2.951,18.257,2.951c10.797,0,20.612-2.753,27.681-7.67
		C103.014,81.433,107.528,74.548,107.528,66.877 M120.29,93.231c-1.179-1.377-3.338-3.539-4.91-6.293
		c-0.194-0.197-0.393-0.591,0.198-1.18c3.926-3.737,6.478-8.261,6.478-13.375c0-2.361-0.197-5.507-1.766-8.654
		c-1.377-3.147-3.929-6.293-8.245-8.458c-0.785-0.196-1.769,0-2.162,0.787c-0.392,0.787,0,1.771,0.786,2.164
		c3.73,1.77,5.692,4.13,6.871,6.687c1.179,2.558,1.373,5.311,1.373,7.475c0,4.523-2.552,8.85-7.065,12.391
		c0,0-0.786,0.787-0.394,1.966c0.591,1.181,3.142,4.722,4.713,6.49c0.194,0.197,0.393,0.395,0.588,0.787
		c-2.748-0.983-7.264-2.754-11.189-5.113c0,0-0.395-0.195-1.375,0c-2.749,0.983-5.495,1.966-11.188,1.966
		c-0.785,0-1.57,0.788-1.57,1.575c0,0.982,0.785,1.572,1.57,1.572c5.3,0.196,8.636-0.983,11.188-1.771c0.589-0.195,0.785,0,0.98,0
		c5.694,3.345,11.977,5.115,13.352,5.509c0.391,0.196,0.784,0.196,1.374,0.196c0.394,0,0.98,0,1.372-0.393
		c0.59-0.396,0.787-1.181,0.787-1.574c0-0.983-0.393-1.376-0.787-1.771C121.073,93.822,120.877,93.626,120.29,93.231"/>
</g>
</svg>
